<?xml version="1.0" encoding="UTF-8"?>
<svg width="745" height="383" fill="none" viewBox="0 0 745 383" xmlns="http://www.w3.org/2000/svg">
 <path d="m253.32 14.841v-3.75h26.182v3.75h-10.977v31.159h-4.228v-31.159h-10.977zm31.752 40.977c-0.682 0-1.29-0.0568-1.824-0.1705-0.534-0.1022-0.904-0.2045-1.108-0.3068l1.023-3.5454c0.977 0.25 1.84 0.3409 2.59 0.2727s1.415-0.4034 1.995-1.0057c0.591-0.5909 1.13-1.5511 1.619-2.8807l0.75-2.0454-9.682-26.318h4.364l7.227 20.864h0.273l7.227-20.864h4.364l-11.114 30c-0.5 1.3523-1.119 2.4716-1.858 3.3579-0.738 0.8978-1.596 1.5625-2.574 1.9944-0.966 0.4318-2.056 0.6477-3.272 0.6477zm24.127 0v-36h3.887v4.1591h0.477c0.296-0.4546 0.705-1.0341 1.227-1.7387 0.534-0.7159 1.296-1.3522 2.284-1.9091 1-0.5681 2.353-0.8522 4.057-0.8522 2.205 0 4.148 0.5511 5.83 1.6534s2.994 2.6648 3.937 4.6875 1.415 4.4091 1.415 7.1591c0 2.7727-0.472 5.1761-1.415 7.2102-0.943 2.0227-2.25 3.5909-3.92 4.7045-1.671 1.1023-3.597 1.6535-5.779 1.6535-1.681 0-3.028-0.2785-4.039-0.8353-1.012-0.5682-1.79-1.2102-2.336-1.9261-0.545-0.7273-0.965-1.3296-1.261-1.8068h-0.341v13.841h-4.023zm3.955-22.909c0 1.9773 0.29 3.7216 0.869 5.2329 0.58 1.5 1.426 2.6762 2.54 3.5285 1.114 0.8409 2.477 1.2613 4.091 1.2613 1.682 0 3.085-0.4432 4.21-1.3295 1.137-0.8978 1.989-2.1023 2.557-3.6137 0.58-1.5227 0.869-3.2159 0.869-5.0795 0-1.8409-0.284-3.5-0.852-4.9773-0.557-1.4886-1.403-2.6648-2.54-3.5284-1.125-0.875-2.539-1.3125-4.244-1.3125-1.636 0-3.011 0.4148-4.125 1.2443-1.114 0.8182-1.955 1.9659-2.523 3.4432-0.568 1.4659-0.852 3.1761-0.852 5.1307zm36.273 13.636c-2.523 0-4.699-0.5569-6.529-1.6705-1.818-1.125-3.221-2.6932-4.21-4.7045-0.977-2.0228-1.466-4.375-1.466-7.0569 0-2.6818 0.489-5.0454 1.466-7.0909 0.989-2.0568 2.364-3.6591 4.125-4.8068 1.773-1.1591 3.841-1.7386 6.205-1.7386 1.363 0 2.71 0.2272 4.039 0.6818 1.33 0.4545 2.54 1.1932 3.631 2.2159 1.091 1.0114 1.96 2.3523 2.608 4.0227 0.648 1.6705 0.972 3.7273 0.972 6.1705v1.7045h-20.182v-3.4772h16.091c0-1.4773-0.296-2.7955-0.887-3.9546-0.579-1.1591-1.409-2.0739-2.488-2.7443-1.068-0.6705-2.33-1.0057-3.784-1.0057-1.603 0-2.989 0.3977-4.159 1.1932-1.16 0.7841-2.052 1.8068-2.677 3.0682-0.625 1.2613-0.937 2.6136-0.937 4.0568v2.3182c0 1.9772 0.341 3.6534 1.023 5.0284 0.693 1.3636 1.653 2.4034 2.88 3.1193 1.228 0.7045 2.654 1.0568 4.279 1.0568 1.057 0 2.011-0.1477 2.863-0.4432 0.864-0.3068 1.608-0.7613 2.233-1.3636 0.625-0.6136 1.108-1.375 1.449-2.2841l3.887 1.0909c-0.41 1.3182-1.097 2.4773-2.063 3.4773-0.966 0.9886-2.159 1.7614-3.58 2.3182-1.42 0.5454-3.017 0.8182-4.789 0.8182zm36.596-26.727c-0.204-1.7273-1.034-3.0682-2.488-4.0227-1.455-0.9546-3.239-1.4319-5.353-1.4319-1.545 0-2.897 0.25-4.056 0.75-1.148 0.5-2.046 1.1875-2.694 2.0625-0.636 0.875-0.954 1.8694-0.954 2.983 0 0.9318 0.221 1.7329 0.665 2.4034 0.454 0.6591 1.034 1.2102 1.738 1.6534 0.705 0.4318 1.443 0.7898 2.216 1.0739 0.773 0.2727 1.483 0.4943 2.131 0.6647l3.545 0.9546c0.909 0.2386 1.921 0.5682 3.034 0.9886 1.125 0.4205 2.199 0.9943 3.222 1.7216 1.034 0.7159 1.886 1.6364 2.557 2.7614 0.67 1.125 1.005 2.5057 1.005 4.142 0 1.8864-0.494 3.5909-1.482 5.1137-0.978 1.5227-2.41 2.7329-4.296 3.6306-1.875 0.8978-4.153 1.3466-6.835 1.3466-2.5 0-4.665-0.4034-6.494-1.2102-1.819-0.8068-3.25-1.9318-4.296-3.375-1.034-1.4432-1.619-3.1193-1.756-5.0284h4.364c0.114 1.3182 0.557 2.4091 1.33 3.2727 0.784 0.8523 1.772 1.4887 2.965 1.9091 1.205 0.4091 2.5 0.6137 3.887 0.6137 1.613 0 3.062-0.2614 4.346-0.7841 1.285-0.5341 2.302-1.2728 3.052-2.2159 0.75-0.9546 1.125-2.0682 1.125-3.341 0-1.159-0.324-2.1022-0.972-2.8295s-1.5-1.3182-2.557-1.7727c-1.057-0.4546-2.199-0.8523-3.426-1.1932l-4.295-1.2273c-2.728-0.7841-4.887-1.9034-6.478-3.3579-1.591-1.4546-2.386-3.358-2.386-5.7103 0-1.9545 0.528-3.6591 1.585-5.1136 1.068-1.4659 2.5-2.6023 4.296-3.4091 1.806-0.8182 3.823-1.2273 6.051-1.2273 2.25 0 4.25 0.4034 6 1.2103 1.75 0.7954 3.136 1.8863 4.159 3.2727 1.034 1.3864 1.579 2.9602 1.636 4.7216h-4.091zm21.61 26.727c-2.455 0-4.568-0.5796-6.341-1.7387s-3.137-2.7557-4.091-4.7898c-0.955-2.034-1.432-4.3579-1.432-6.9715 0-2.6591 0.489-5.0057 1.466-7.0398 0.989-2.0455 2.364-3.6421 4.125-4.7898 1.773-1.1591 3.841-1.7386 6.204-1.7386 1.841 0 3.5 0.3409 4.978 1.0227 1.477 0.6818 2.687 1.6364 3.63 2.8636 0.944 1.2273 1.529 2.6591 1.756 4.2955h-4.023c-0.306-1.1932-0.988-2.25-2.045-3.1705-1.045-0.9318-2.455-1.3977-4.227-1.3977-1.568 0-2.943 0.4091-4.125 1.2273-1.171 0.8068-2.086 1.9488-2.745 3.4261-0.647 1.4659-0.971 3.1875-0.971 5.1648 0 2.0227 0.318 3.7841 0.954 5.2841 0.648 1.5 1.557 2.6648 2.728 3.4943 1.181 0.8295 2.568 1.2443 4.159 1.2443 1.045 0 1.994-0.1818 2.846-0.5454 0.853-0.3637 1.574-0.8864 2.165-1.5682s1.011-1.5 1.261-2.4546h4.023c-0.227 1.5455-0.79 2.9375-1.687 4.1762-0.887 1.2272-2.063 2.2045-3.529 2.9318-1.454 0.7159-3.147 1.0739-5.079 1.0739zm16.176-0.5455v-26.182h3.886v3.9545h0.273c0.477-1.2954 1.341-2.3466 2.591-3.1534s2.659-1.2102 4.227-1.2102c0.296 0 0.665 0.0057 1.108 0.017 0.443 0.0114 0.778 0.0284 1.006 0.0512v4.0909c-0.137-0.0341-0.449-0.0852-0.938-0.1534-0.477-0.0796-0.983-0.1193-1.517-0.1193-1.273 0-2.409 0.267-3.409 0.8011-0.989 0.5227-1.773 1.25-2.352 2.1818-0.568 0.9205-0.852 1.9716-0.852 3.1534v16.568h-4.023zm17.859 0v-26.182h4.023v26.182h-4.023zm2.046-30.546c-0.784 0-1.461-0.267-2.029-0.8011-0.557-0.5341-0.835-1.1761-0.835-1.9261s0.278-1.3921 0.835-1.9262c0.568-0.5341 1.245-0.8011 2.029-0.8011s1.454 0.267 2.011 0.8011c0.568 0.5341 0.852 1.1762 0.852 1.9262s-0.284 1.392-0.852 1.9261c-0.557 0.5341-1.227 0.8011-2.011 0.8011zm9.345 40.364v-36h3.886v4.1591h0.477c0.296-0.4546 0.705-1.0341 1.228-1.7387 0.534-0.7159 1.295-1.3522 2.284-1.9091 1-0.5681 2.352-0.8522 4.057-0.8522 2.204 0 4.147 0.5511 5.829 1.6534s2.995 2.6648 3.938 4.6875 1.414 4.4091 1.414 7.1591c0 2.7727-0.471 5.1761-1.414 7.2102-0.943 2.0227-2.25 3.5909-3.921 4.7045-1.67 1.1023-3.596 1.6535-5.778 1.6535-1.682 0-3.029-0.2785-4.04-0.8353-1.011-0.5682-1.79-1.2102-2.335-1.9261-0.546-0.7273-0.966-1.3296-1.262-1.8068h-0.34v13.841h-4.023zm3.954-22.909c0 1.9773 0.29 3.7216 0.87 5.2329 0.579 1.5 1.426 2.6762 2.539 3.5285 1.114 0.8409 2.478 1.2613 4.091 1.2613 1.682 0 3.086-0.4432 4.211-1.3295 1.136-0.8978 1.988-2.1023 2.556-3.6137 0.58-1.5227 0.87-3.2159 0.87-5.0795 0-1.8409-0.284-3.5-0.853-4.9773-0.556-1.4886-1.403-2.6648-2.539-3.5284-1.125-0.875-2.54-1.3125-4.245-1.3125-1.636 0-3.011 0.4148-4.125 1.2443-1.113 0.8182-1.954 1.9659-2.522 3.4432-0.569 1.4659-0.853 3.1761-0.853 5.1307zm36.682-13.091v3.4091h-13.568v-3.4091h13.568zm-9.613-6.2727h4.022v24.954c0 1.1364 0.165 1.9886 0.495 2.5568 0.341 0.5568 0.772 0.9318 1.295 1.125 0.534 0.1818 1.097 0.2727 1.688 0.2727 0.443 0 0.806-0.0227 1.09-0.0681 0.285-0.0569 0.512-0.1023 0.682-0.1364l0.818 3.6136c-0.272 0.1023-0.653 0.2046-1.142 0.3069-0.488 0.1136-1.108 0.1704-1.858 0.1704-1.136 0-2.25-0.2443-3.34-0.7329-1.08-0.4887-1.978-1.233-2.694-2.233-0.704-1-1.056-2.2614-1.056-3.7841v-26.045z" fill="#B8BB26"/>
 <path d="m25.091 344.82-9.6818 26.182h-4.0909l-9.6818-26.182h4.3636l7.2273 20.864h0.2727l7.2273-20.864h4.3636zm5.3097 26.182v-26.182h4.0227v26.182h-4.0227zm2.0454-30.545c-0.7841 0-1.4602-0.267-2.0284-0.802-0.5568-0.534-0.8352-1.176-0.8352-1.926s0.2784-1.392 0.8352-1.926c0.5682-0.534 1.2443-0.801 2.0284-0.801s1.4546 0.267 2.0114 0.801c0.5682 0.534 0.8523 1.176 0.8523 1.926s-0.2841 1.392-0.8523 1.926c-0.5568 0.535-1.2273 0.802-2.0114 0.802zm27.891 10.227-3.6136 1.023c-0.2273-0.603-0.5625-1.188-1.0057-1.756-0.4318-0.58-1.0227-1.057-1.7727-1.432s-1.7102-0.562-2.8807-0.562c-1.6023 0-2.9375 0.369-4.0057 1.107-1.0568 0.728-1.5852 1.654-1.5852 2.779 0 1 0.3636 1.79 1.0909 2.369 0.7273 0.58 1.8637 1.063 3.4091 1.449l3.8864 0.955c2.3409 0.568 4.0852 1.437 5.2329 2.608 1.1478 1.159 1.7216 2.653 1.7216 4.483 0 1.5-0.4318 2.84-1.2954 4.022-0.8523 1.182-2.0455 2.114-3.5796 2.796s-3.3182 1.022-5.3523 1.022c-2.6704 0-4.8806-0.579-6.6306-1.738s-2.858-2.852-3.3239-5.08l3.8182-0.954c0.3636 1.409 1.0511 2.466 2.0625 3.17 1.0227 0.705 2.3579 1.057 4.0057 1.057 1.875 0 3.3636-0.398 4.4659-1.193 1.1136-0.807 1.6704-1.773 1.6704-2.898 0-0.909-0.3182-1.67-0.9545-2.284-0.6364-0.625-1.6137-1.091-2.9318-1.398l-4.3637-1.022c-2.3977-0.569-4.1591-1.449-5.2841-2.643-1.1136-1.204-1.6704-2.71-1.6704-4.517 0-1.477 0.4148-2.784 1.2443-3.92 0.8409-1.136 1.983-2.028 3.4261-2.676 1.4546-0.648 3.1023-0.972 4.9432-0.972 2.5909 0 4.625 0.568 6.1023 1.705 1.4886 1.136 2.5454 2.636 3.1704 4.5zm9.4645 20.591c-0.8409 0-1.5625-0.301-2.1647-0.904-0.6023-0.602-0.9034-1.324-0.9034-2.164 0-0.841 0.3011-1.563 0.9034-2.165 0.6022-0.603 1.3238-0.904 2.1647-0.904s1.5625 0.301 2.1648 0.904c0.6023 0.602 0.9034 1.324 0.9034 2.165 0 0.556-0.142 1.068-0.4261 1.534-0.2727 0.466-0.6421 0.841-1.108 1.125-0.4545 0.272-0.9659 0.409-1.5341 0.409zm10.287-26.455h4.0227v28.091c0 1.614-0.2784 3.011-0.8352 4.193-0.5455 1.182-1.375 2.097-2.4887 2.745-1.1022 0.647-2.4943 0.971-4.1761 0.971h-0.4091-0.4091v-3.75h0.375 0.375c1.2273 0 2.125-0.363 2.6932-1.091 0.5682-0.716 0.8523-1.738 0.8523-3.068v-28.091zm1.9772-4.363c-0.784 0-1.4602-0.267-2.0284-0.802-0.5568-0.534-0.8352-1.176-0.8352-1.926s0.2784-1.392 0.8352-1.926c0.5682-0.534 1.2444-0.801 2.0284-0.801 0.7841 0 1.4546 0.267 2.0114 0.801 0.5682 0.534 0.8523 1.176 0.8523 1.926s-0.2841 1.392-0.8523 1.926c-0.5568 0.535-1.2273 0.802-2.0114 0.802zm27.959 10.227-3.613 1.023c-0.228-0.603-0.563-1.188-1.006-1.756-0.432-0.58-1.023-1.057-1.773-1.432s-1.71-0.562-2.881-0.562c-1.6019 0-2.9371 0.369-4.0053 1.107-1.0568 0.728-1.5852 1.654-1.5852 2.779 0 1 0.3636 1.79 1.0909 2.369 0.7273 0.58 1.8637 1.063 3.4091 1.449l3.8865 0.955c2.341 0.568 4.085 1.437 5.233 2.608 1.148 1.159 1.721 2.653 1.721 4.483 0 1.5-0.431 2.84-1.295 4.022-0.852 1.182-2.045 2.114-3.58 2.796-1.534 0.682-3.318 1.022-5.352 1.022-2.6703 0-4.8805-0.579-6.6305-1.738s-2.858-2.852-3.3239-5.08l3.8182-0.954c0.3636 1.409 1.0511 2.466 2.0625 3.17 1.0227 0.705 2.3579 1.057 4.0057 1.057 1.875 0 3.364-0.398 4.466-1.193 1.114-0.807 1.67-1.773 1.67-2.898 0-0.909-0.318-1.67-0.954-2.284-0.637-0.625-1.614-1.091-2.932-1.398l-4.3637-1.022c-2.3977-0.569-4.1591-1.449-5.2841-2.643-1.1136-1.204-1.6704-2.71-1.6704-4.517 0-1.477 0.4148-2.784 1.2443-3.92 0.8409-1.136 1.983-2.028 3.4261-2.676 1.4546-0.648 3.1023-0.972 4.9428-0.972 2.591 0 4.625 0.568 6.103 1.705 1.488 1.136 2.545 2.636 3.17 4.5z" fill="#458588"/>
 <path d="m631.23 371v-34.909h20.932v3.75h-16.704v11.795h15.136v3.75h-15.136v15.614h-4.228zm31.649-34.909v34.909h-4.022v-34.909h4.022zm15.073 35.523c-1.659 0-3.165-0.313-4.517-0.938-1.352-0.636-2.426-1.551-3.222-2.744-0.795-1.205-1.193-2.659-1.193-4.364 0-1.5 0.296-2.716 0.886-3.648 0.591-0.943 1.381-1.681 2.37-2.215 0.988-0.535 2.079-0.932 3.272-1.194 1.205-0.272 2.415-0.488 3.631-0.647 1.591-0.205 2.881-0.358 3.869-0.461 1-0.113 1.728-0.301 2.182-0.562 0.466-0.261 0.699-0.716 0.699-1.364v-0.136c0-1.682-0.46-2.989-1.381-3.921-0.909-0.931-2.289-1.397-4.142-1.397-1.92 0-3.426 0.42-4.517 1.261s-1.858 1.739-2.301 2.693l-3.818-1.363c0.682-1.591 1.591-2.83 2.727-3.716 1.148-0.898 2.398-1.523 3.75-1.875 1.364-0.364 2.705-0.546 4.023-0.546 0.841 0 1.807 0.103 2.898 0.307 1.102 0.193 2.165 0.597 3.187 1.21 1.034 0.614 1.892 1.54 2.574 2.779 0.682 1.238 1.023 2.897 1.023 4.977v17.25h-4.023v-3.545h-0.204c-0.273 0.568-0.728 1.176-1.364 1.823-0.636 0.648-1.483 1.199-2.54 1.654-1.057 0.454-2.346 0.682-3.869 0.682zm0.613-3.614c1.591 0 2.932-0.312 4.023-0.938 1.103-0.624 1.932-1.431 2.489-2.42 0.568-0.989 0.852-2.028 0.852-3.119v-3.682c-0.17 0.204-0.545 0.392-1.125 0.562-0.568 0.159-1.227 0.302-1.977 0.427-0.739 0.113-1.46 0.215-2.165 0.306-0.693 0.08-1.256 0.148-1.687 0.205-1.046 0.136-2.023 0.358-2.932 0.665-0.898 0.295-1.625 0.744-2.182 1.346-0.545 0.591-0.818 1.398-0.818 2.421 0 1.397 0.517 2.454 1.551 3.17 1.045 0.705 2.369 1.057 3.971 1.057zm37.275-17.318-3.614 1.023c-0.227-0.603-0.562-1.188-1.006-1.756-0.431-0.58-1.022-1.057-1.772-1.432s-1.711-0.562-2.881-0.562c-1.602 0-2.938 0.369-4.006 1.107-1.057 0.728-1.585 1.654-1.585 2.779 0 1 0.364 1.79 1.091 2.369 0.727 0.58 1.864 1.063 3.409 1.449l3.886 0.955c2.341 0.568 4.086 1.437 5.233 2.608 1.148 1.159 1.722 2.653 1.722 4.483 0 1.5-0.432 2.84-1.296 4.022-0.852 1.182-2.045 2.114-3.579 2.796s-3.318 1.022-5.352 1.022c-2.671 0-4.881-0.579-6.631-1.738s-2.858-2.852-3.324-5.08l3.818-0.954c0.364 1.409 1.051 2.466 2.063 3.17 1.023 0.705 2.358 1.057 4.005 1.057 1.875 0 3.364-0.398 4.466-1.193 1.114-0.807 1.671-1.773 1.671-2.898 0-0.909-0.318-1.67-0.955-2.284-0.636-0.625-1.613-1.091-2.932-1.398l-4.363-1.022c-2.398-0.569-4.159-1.449-5.284-2.643-1.114-1.204-1.671-2.71-1.671-4.517 0-1.477 0.415-2.784 1.245-3.92 0.841-1.136 1.983-2.028 3.426-2.676 1.454-0.648 3.102-0.972 4.943-0.972 2.591 0 4.625 0.568 6.102 1.705 1.489 1.136 2.546 2.636 3.171 4.5zm10.282 10.773-0.068-4.978h0.818l11.455-11.659h4.977l-12.204 12.341h-0.341l-4.637 4.296zm-3.75 9.545v-34.909h4.023v34.909h-4.023zm16.637 0-10.228-12.955 2.864-2.795 12.477 15.75h-5.113z" fill="#8EC07C"/>
 <line x1="252.78" x2="114.78" y1="58.918" y2="325.92" stroke="#D5C4A1" stroke-width="4"/>
 <line x1="130" x2="609" y1="352" y2="352" stroke="#D5C4A1" stroke-width="4"/>
 <line x1="498.8" x2="628.8" y1="57.124" y2="324.12" stroke="#D5C4A1" stroke-width="4"/>
</svg>
