<?xml version="1.0" encoding="UTF-8"?>
<svg width="676" height="72" fill="none" viewBox="0 0 676 72" xmlns="http://www.w3.org/2000/svg">
 <g filter="url(#filter0_d_0_1)">
  <path d="m44.557 69.5v-8.7273h5.233v0.9375h-4.1762v2.9489h3.7841v0.9375h-3.7841v3.9034h-1.0568zm9.0852 0.1364c-0.6136 0-1.142-0.1449-1.5852-0.4347s-0.7841-0.6889-1.0227-1.1974c-0.2386-0.5086-0.358-1.0895-0.358-1.7429 0-0.6648 0.1222-1.2515 0.3665-1.76 0.2472-0.5113 0.5909-0.9105 1.0313-1.1974 0.4431-0.2898 0.9602-0.4347 1.5511-0.4347 0.4602 0 0.875 0.0852 1.2443 0.2557s0.6719 0.4091 0.9077 0.7159 0.3821 0.6648 0.4389 1.0739h-1.0057c-0.0767-0.2983-0.2471-0.5625-0.5113-0.7926-0.2614-0.233-0.6137-0.3495-1.0569-0.3495-0.392 0-0.7357 0.1023-1.0312 0.3068-0.2926 0.2017-0.5213 0.4873-0.6861 0.8566-0.1619 0.3665-0.2429 0.7969-0.2429 1.2912 0 0.5057 0.0796 0.946 0.2387 1.321 0.1619 0.375 0.3892 0.6662 0.6818 0.8736 0.2954 0.2074 0.642 0.3111 1.0397 0.3111 0.2614 0 0.4986-0.0455 0.7117-0.1364s0.3935-0.2216 0.5412-0.3921c0.1477-0.1704 0.2528-0.375 0.3153-0.6136h1.0057c-0.0568 0.3864-0.1974 0.7344-0.4219 1.044-0.2216 0.3069-0.5156 0.5512-0.8821 0.733-0.3636 0.179-0.7869 0.2685-1.2699 0.2685zm11.203-6.1364h-1.0568c-0.0625-0.304-0.1719-0.571-0.3282-0.8011-0.1534-0.2301-0.3409-0.4233-0.5625-0.5796-0.2187-0.1591-0.4616-0.2784-0.7287-0.3579-0.267-0.0796-0.5454-0.1194-0.8352-0.1194-0.5284 0-1.0071 0.1336-1.4361 0.4006-0.4261 0.2671-0.7656 0.6605-1.0184 1.1804-0.25 0.5199-0.375 1.1577-0.375 1.9134 0 0.7556 0.125 1.3934 0.375 1.9133 0.2528 0.5199 0.5923 0.9134 1.0184 1.1804 0.429 0.2671 0.9077 0.4006 1.4361 0.4006 0.2898 0 0.5682-0.0398 0.8352-0.1193 0.2671-0.0796 0.51-0.1975 0.7287-0.3537 0.2216-0.1591 0.4091-0.3537 0.5625-0.5838 0.1563-0.233 0.2657-0.5 0.3282-0.8012h1.0568c-0.0796 0.446-0.2245 0.8452-0.4347 1.1975-0.2102 0.3522-0.4716 0.652-0.7841 0.8991-0.3125 0.2443-0.6633 0.4304-1.0525 0.5583-0.3864 0.1278-0.7998 0.1917-1.2401 0.1917-0.7443 0-1.4062-0.1818-1.9858-0.5454-0.5795-0.3637-1.0355-0.8807-1.3679-1.5512-0.3324-0.6704-0.4986-1.4659-0.4986-2.3863 0-0.9205 0.1662-1.7159 0.4986-2.3864s0.7884-1.1875 1.3679-1.5511c0.5796-0.3637 1.2415-0.5455 1.9858-0.5455 0.4403 0 0.8537 0.0639 1.2401 0.1918 0.3892 0.1278 0.74 0.3153 1.0525 0.5625 0.3125 0.2443 0.5739 0.5426 0.7841 0.8949 0.2102 0.3494 0.3551 0.7485 0.4347 1.1974zm2.3213-0.5455 1.5682 2.6762 1.5682-2.6762h1.1591l-2.1136 3.2728 2.1136 3.2727h-1.1591l-1.5682-2.5398-1.5682 2.5398h-1.159l2.0795-3.2727-2.0795-3.2728h1.159zm10.248 6.5455v0.9375h-5.4546v-0.9375h5.4546zm0.4538-8.7273 2.5909 7.3466h0.1023l2.5909-7.3466h1.1079l-3.2045 8.7273h-1.0909l-3.2046-8.7273h1.108zm7.7514 8.7273v-8.7273h2.9489c0.6846 0 1.2443 0.1236 1.679 0.3708 0.4375 0.2443 0.7613 0.5753 0.9716 0.9929 0.2102 0.4176 0.3153 0.8835 0.3153 1.3977s-0.1051 0.9815-0.3153 1.402c-0.2074 0.4204-0.5285 0.7557-0.9631 1.0057-0.4347 0.2471-0.9915 0.3707-1.6705 0.3707h-2.1136v-0.9375h2.0795c0.4688 0 0.8452-0.081 1.1293-0.2429s0.4901-0.3807 0.6179-0.6562c0.1307-0.2785 0.196-0.5924 0.196-0.9418s-0.0653-0.6619-0.196-0.9375c-0.1278-0.2756-0.3352-0.4915-0.6222-0.6477-0.2869-0.1591-0.6676-0.2387-1.142-0.2387h-1.858v7.7898h-1.0568zm14.64-6h-1.0566c-0.0625-0.304-0.1719-0.571-0.3281-0.8011-0.1534-0.2301-0.3409-0.4233-0.5625-0.5796-0.2188-0.1591-0.4617-0.2784-0.7287-0.3579-0.267-0.0796-0.5455-0.1194-0.8352-0.1194-0.5284 0-1.0071 0.1336-1.4361 0.4006-0.4261 0.2671-0.7656 0.6605-1.0185 1.1804-0.25 0.5199-0.375 1.1577-0.375 1.9134 0 0.7556 0.125 1.3934 0.375 1.9133 0.2529 0.5199 0.5924 0.9134 1.0185 1.1804 0.429 0.2671 0.9077 0.4006 1.4361 0.4006 0.2897 0 0.5682-0.0398 0.8352-0.1193 0.267-0.0796 0.5099-0.1975 0.7287-0.3537 0.2216-0.1591 0.4091-0.3537 0.5625-0.5838 0.1562-0.233 0.2656-0.5 0.3281-0.8012h1.0566c-0.079 0.446-0.224 0.8452-0.4344 1.1975-0.2103 0.3522-0.4716 0.652-0.7841 0.8991-0.3125 0.2443-0.6634 0.4304-1.0526 0.5583-0.3863 0.1278-0.7997 0.1917-1.24 0.1917-0.7443 0-1.4063-0.1818-1.9858-0.5454-0.5796-0.3637-1.0355-0.8807-1.3679-1.5512-0.3324-0.6704-0.4986-1.4659-0.4986-2.3863 0-0.9205 0.1662-1.7159 0.4986-2.3864s0.7883-1.1875 1.3679-1.5511c0.5795-0.3637 1.2415-0.5455 1.9858-0.5455 0.4403 0 0.8537 0.0639 1.24 0.1918 0.3892 0.1278 0.7401 0.3153 1.0526 0.5625 0.3125 0.2443 0.5738 0.5426 0.7841 0.8949 0.2104 0.3494 0.3554 0.7485 0.4344 1.1974zm2.577-2.7273v8.7273h-1.005v-8.7273h1.005zm6.769 8.7273v0.9375h-5.454v-0.9375h5.454zm1.557-8.7273 2.25 3.6307h0.068l2.25-3.6307h1.244l-2.744 4.3637 2.744 4.3636h-1.244l-2.25-3.5625h-0.068l-2.25 3.5625h-1.244l2.812-4.3636-2.812-4.3637h1.244zm9.183 8.8637c-0.545 0-1.027-0.1378-1.444-0.4134-0.418-0.2784-0.745-0.6704-0.981-1.1761-0.235-0.5085-0.353-1.1094-0.353-1.8026 0-0.6875 0.118-1.2841 0.353-1.7898 0.236-0.5056 0.564-0.8963 0.985-1.1718 0.42-0.2756 0.906-0.4134 1.457-0.4134 0.426 0 0.763 0.071 1.01 0.2131 0.25 0.1392 0.441 0.2983 0.571 0.4773 0.134 0.1761 0.237 0.321 0.311 0.4346h0.085v-3.2216h1.006v8.7273h-0.971v-1.0057h-0.12c-0.074 0.1193-0.179 0.2699-0.315 0.4517-0.136 0.179-0.331 0.3395-0.584 0.4816-0.253 0.1392-0.589 0.2088-1.01 0.2088zm0.137-0.9034c0.403 0 0.744-0.1052 1.022-0.3154 0.279-0.2131 0.49-0.5071 0.635-0.8821 0.145-0.3778 0.218-0.8139 0.218-1.3082 0-0.4887-0.071-0.9162-0.214-1.2827-0.142-0.3693-0.352-0.6562-0.63-0.8608-0.279-0.2074-0.622-0.3111-1.031-0.3111-0.427 0-0.782 0.1094-1.066 0.3282-0.281 0.2159-0.493 0.5099-0.635 0.8821-0.139 0.3693-0.209 0.784-0.209 1.2443 0 0.4659 0.071 0.8892 0.214 1.2699 0.144 0.3778 0.357 0.6789 0.639 0.9034 0.284 0.2216 0.636 0.3324 1.057 0.3324zm7.674 0.8863c-0.642 0-1.189-0.1747-1.64-0.5241-0.452-0.3523-0.797-0.8622-1.036-1.5299-0.239-0.6704-0.358-1.4801-0.358-2.4289 0-0.9432 0.119-1.7486 0.358-2.4162 0.242-0.6705 0.588-1.1818 1.04-1.5341 0.454-0.3551 1-0.5327 1.636-0.5327 0.637 0 1.181 0.1776 1.632 0.5327 0.455 0.3523 0.801 0.8636 1.04 1.5341 0.242 0.6676 0.362 1.473 0.362 2.4162 0 0.9488-0.119 1.7585-0.358 2.4289-0.238 0.6677-0.583 1.1776-1.035 1.5299-0.452 0.3494-0.999 0.5241-1.641 0.5241zm0-0.9375c0.637 0 1.131-0.3068 1.483-0.9204 0.352-0.6137 0.529-1.4887 0.529-2.625 0-0.7557-0.081-1.3992-0.243-1.9304-0.159-0.5313-0.389-0.9361-0.691-1.2145-0.298-0.2784-0.657-0.4176-1.078-0.4176-0.63 0-1.123 0.311-1.478 0.9332-0.356 0.6193-0.533 1.4957-0.533 2.6293 0 0.7556 0.079 1.3977 0.239 1.9261 0.159 0.5284 0.387 0.9304 0.686 1.206 0.301 0.2755 0.663 0.4133 1.086 0.4133zm5.864-7.9091v8.7273h-1.057v-8.7273h1.057zm2.119 0h1.261l2.966 7.2443h0.102l2.966-7.2443h1.262v8.7273h-0.989v-6.6307h-0.085l-2.727 6.6307h-0.955l-2.727-6.6307h-0.086v6.6307h-0.988v-8.7273zm10.386 8.7273v-0.767l4.704-7.0228h-4.755v-0.9375h6.017v0.7671l-4.705 7.0227h4.756v0.9375h-6.017zm14.71-8.7273v8.7273h-1.023l-4.755-6.8523h-0.086v6.8523h-1.056v-8.7273h1.022l4.773 6.8693h0.085v-6.8693h1.04zm4.825 2.1818v0.8523h-3.392v-0.8523h3.392zm-2.403-1.5681h1.005v6.2386c0 0.2841 0.041 0.4972 0.124 0.6392 0.085 0.1392 0.193 0.233 0.324 0.2813 0.133 0.0454 0.274 0.0681 0.422 0.0681 0.11 0 0.201-0.0056 0.272-0.017 0.071-0.0142 0.128-0.0256 0.171-0.0341l0.204 0.9034c-0.068 0.0256-0.163 0.0511-0.285 0.0767-0.122 0.0284-0.277 0.0426-0.465 0.0426-0.284 0-0.562-0.0611-0.835-0.1832-0.27-0.1222-0.494-0.3082-0.673-0.5582-0.176-0.25-0.264-0.5654-0.264-0.9461v-6.5113zm6.745 8.2329c-0.642 0-1.189-0.1747-1.64-0.5241-0.452-0.3523-0.797-0.8622-1.036-1.5299-0.238-0.6704-0.358-1.4801-0.358-2.4289 0-0.9432 0.12-1.7486 0.358-2.4162 0.242-0.6705 0.588-1.1818 1.04-1.5341 0.455-0.3551 1-0.5327 1.636-0.5327 0.637 0 1.181 0.1776 1.632 0.5327 0.455 0.3523 0.802 0.8636 1.04 1.5341 0.242 0.6676 0.362 1.473 0.362 2.4162 0 0.9488-0.119 1.7585-0.358 2.4289-0.238 0.6677-0.583 1.1776-1.035 1.5299-0.452 0.3494-0.999 0.5241-1.641 0.5241zm0-0.9375c0.637 0 1.131-0.3068 1.483-0.9204 0.353-0.6137 0.529-1.4887 0.529-2.625 0-0.7557-0.081-1.3992-0.243-1.9304-0.159-0.5313-0.389-0.9361-0.691-1.2145-0.298-0.2784-0.657-0.4176-1.078-0.4176-0.63 0-1.123 0.311-1.478 0.9332-0.355 0.6193-0.533 1.4957-0.533 2.6293 0 0.7556 0.08 1.3977 0.239 1.9261s0.387 0.9304 0.686 1.206c0.301 0.2755 0.663 0.4133 1.086 0.4133zm7.586-5.7273v0.8523h-3.529v-0.8523h3.529zm-2.472 6.5455v-7.4489c0-0.375 0.088-0.6875 0.264-0.9375s0.405-0.4375 0.686-0.5625c0.282-0.125 0.578-0.1875 0.891-0.1875 0.247 0 0.449 0.0199 0.605 0.0597s0.273 0.0767 0.349 0.1108l-0.289 0.8693c-0.051-0.017-0.122-0.0383-0.213-0.0639-0.088-0.0256-0.205-0.0384-0.35-0.0384-0.332 0-0.572 0.0838-0.72 0.2515-0.145 0.1676-0.217 0.4133-0.217 0.7372v7.2102h-1.006zm6.254 2.5909c-0.486 0-0.904-0.0625-1.253-0.1875-0.35-0.1222-0.641-0.2841-0.874-0.4858-0.23-0.1988-0.413-0.4119-0.55-0.6392l0.802-0.5625c0.09 0.1193 0.205 0.2557 0.345 0.4091 0.139 0.1562 0.329 0.2912 0.571 0.4048 0.244 0.1165 0.564 0.1747 0.959 0.1747 0.528 0 0.964-0.1278 1.308-0.3835s0.515-0.6562 0.515-1.2017v-1.3295h-0.085c-0.074 0.1193-0.179 0.267-0.315 0.4432-0.134 0.1732-0.327 0.3281-0.58 0.4644-0.25 0.1336-0.588 0.2003-1.014 0.2003-0.528 0-1.003-0.125-1.423-0.375-0.418-0.25-0.749-0.6136-0.993-1.0909-0.242-0.4773-0.362-1.0568-0.362-1.7386 0-0.6705 0.118-1.2543 0.353-1.7514 0.236-0.5 0.564-0.8864 0.985-1.1591 0.42-0.2756 0.906-0.4134 1.457-0.4134 0.426 0 0.764 0.071 1.014 0.2131 0.253 0.1392 0.446 0.2983 0.58 0.4773 0.136 0.1761 0.241 0.321 0.315 0.4346h0.102v-1.0398h0.972v6.733c0 0.5625-0.128 1.0199-0.383 1.3722-0.253 0.3551-0.594 0.615-1.023 0.7798-0.426 0.1676-0.901 0.2514-1.423 0.2514zm-0.035-3.5966c0.404 0 0.745-0.0923 1.023-0.277 0.279-0.1846 0.49-0.4503 0.635-0.7968 0.145-0.3466 0.217-0.7614 0.217-1.2444 0-0.4716-0.071-0.8877-0.213-1.2485s-0.352-0.6435-0.63-0.8481c-0.279-0.2045-0.622-0.3068-1.032-0.3068-0.426 0-0.781 0.108-1.065 0.3239-0.281 0.2159-0.493 0.5057-0.635 0.8693-0.139 0.3636-0.209 0.7671-0.209 1.2102 0 0.4546 0.071 0.8566 0.213 1.206 0.145 0.3466 0.358 0.6193 0.64 0.8182 0.284 0.196 0.636 0.294 1.056 0.294zm5.898-7.7216v8.7273h-1.057v-8.7273h1.057zm4.744-0.1193c0.358 0.0028 0.716 0.071 1.074 0.2046 0.358 0.1335 0.685 0.3551 0.98 0.6647 0.296 0.3068 0.533 0.7259 0.712 1.2571 0.179 0.5313 0.268 1.1975 0.268 1.9986 0 0.7756-0.074 1.4645-0.221 2.0668-0.145 0.5994-0.355 1.1051-0.631 1.517-0.273 0.4119-0.605 0.7244-0.997 0.9375-0.389 0.2131-0.83 0.3196-1.321 0.3196-0.489 0-0.925-0.0966-1.308-0.2898-0.381-0.196-0.694-0.4673-0.938-0.8139-0.241-0.3494-0.396-0.7542-0.464-1.2145h1.039c0.094 0.4006 0.28 0.7316 0.559 0.9929 0.281 0.2586 0.652 0.3878 1.112 0.3878 0.673 0 1.204-0.294 1.594-0.8821 0.392-0.5881 0.588-1.419 0.588-2.4929h-0.069c-0.159 0.2387-0.348 0.4446-0.566 0.6179-0.219 0.1733-0.462 0.3068-0.729 0.4006-0.267 0.0937-0.551 0.1406-0.852 0.1406-0.5 0-0.959-0.1236-1.377-0.3707-0.415-0.25-0.747-0.5924-0.997-1.027-0.247-0.4375-0.371-0.9375-0.371-1.5 0-0.5341 0.12-1.0227 0.358-1.4659 0.242-0.4461 0.58-0.8012 1.015-1.0654 0.437-0.2642 0.951-0.392 1.542-0.3835zm0 0.9375c-0.358 0-0.68 0.0895-0.967 0.2685-0.284 0.1761-0.51 0.4147-0.678 0.7159-0.165 0.2983-0.247 0.6292-0.247 0.9929 0 0.3636 0.08 0.6946 0.239 0.9929 0.162 0.2954 0.382 0.5312 0.66 0.7074 0.281 0.1733 0.601 0.2599 0.959 0.2599 0.27 0 0.521-0.0525 0.754-0.1577 0.233-0.1079 0.436-0.2542 0.61-0.4389 0.176-0.1875 0.314-0.3991 0.413-0.6349 0.099-0.2387 0.149-0.4872 0.149-0.7458 0-0.3409-0.082-0.6605-0.247-0.9588-0.162-0.2983-0.386-0.5397-0.673-0.7244-0.284-0.1847-0.608-0.277-0.972-0.277zm4.727 10.364v-9h0.972v1.0398h0.119c0.074-0.1136 0.176-0.2585 0.307-0.4346 0.133-0.179 0.324-0.3381 0.571-0.4773 0.25-0.1421 0.588-0.2131 1.014-0.2131 0.551 0 1.037 0.1378 1.457 0.4134 0.421 0.2755 0.749 0.6662 0.985 1.1718 0.236 0.5057 0.353 1.1023 0.353 1.7898 0 0.6932-0.117 1.2941-0.353 1.8026-0.236 0.5057-0.563 0.8977-0.98 1.1761-0.418 0.2756-0.899 0.4134-1.445 0.4134-0.42 0-0.757-0.0696-1.01-0.2088-0.253-0.1421-0.447-0.3026-0.584-0.4816-0.136-0.1818-0.241-0.3324-0.315-0.4517h-0.085v3.4602h-1.006zm0.989-5.7272c0 0.4943 0.072 0.9304 0.217 1.3082 0.145 0.375 0.357 0.669 0.635 0.8821 0.278 0.2102 0.619 0.3154 1.023 0.3154 0.42 0 0.771-0.1108 1.052-0.3324 0.284-0.2245 0.497-0.5256 0.639-0.9034 0.145-0.3807 0.218-0.804 0.218-1.2699 0-0.4603-0.071-0.875-0.213-1.2443-0.139-0.3722-0.351-0.6662-0.635-0.8821-0.281-0.2188-0.635-0.3282-1.061-0.3282-0.409 0-0.753 0.1037-1.032 0.3111-0.278 0.2046-0.488 0.4915-0.63 0.8608-0.142 0.3665-0.213 0.794-0.213 1.2827zm13.824-1.0909c0 0.9204-0.167 1.7159-0.499 2.3863-0.332 0.6705-0.788 1.1875-1.368 1.5512-0.579 0.3636-1.241 0.5454-1.986 0.5454-0.744 0-1.406-0.1818-1.986-0.5454-0.579-0.3637-1.035-0.8807-1.367-1.5512-0.333-0.6704-0.499-1.4659-0.499-2.3863 0-0.9205 0.166-1.7159 0.499-2.3864 0.332-0.6705 0.788-1.1875 1.367-1.5511 0.58-0.3637 1.242-0.5455 1.986-0.5455 0.745 0 1.407 0.1818 1.986 0.5455 0.58 0.3636 1.036 0.8806 1.368 1.5511s0.499 1.4659 0.499 2.3864zm-1.023 0c0-0.7557-0.127-1.3935-0.379-1.9134-0.25-0.5199-0.59-0.9133-1.019-1.1804-0.426-0.267-0.903-0.4006-1.432-0.4006-0.528 0-1.007 0.1336-1.436 0.4006-0.426 0.2671-0.765 0.6605-1.018 1.1804-0.25 0.5199-0.375 1.1577-0.375 1.9134 0 0.7556 0.125 1.3934 0.375 1.9133 0.253 0.5199 0.592 0.9134 1.018 1.1804 0.429 0.2671 0.908 0.4006 1.436 0.4006 0.529 0 1.006-0.1335 1.432-0.4006 0.429-0.267 0.769-0.6605 1.019-1.1804 0.252-0.5199 0.379-1.1577 0.379-1.9133zm2.8 4.3636v-8.7273h2.948c0.685 0 1.245 0.1236 1.679 0.3708 0.438 0.2443 0.762 0.5753 0.972 0.9929s0.315 0.8835 0.315 1.3977-0.105 0.9815-0.315 1.402c-0.207 0.4204-0.528 0.7557-0.963 1.0057-0.435 0.2471-0.992 0.3707-1.671 0.3707h-2.113v-0.9375h2.079c0.469 0 0.846-0.081 1.13-0.2429s0.49-0.3807 0.618-0.6562c0.13-0.2785 0.196-0.5924 0.196-0.9418s-0.066-0.6619-0.196-0.9375c-0.128-0.2756-0.336-0.4915-0.623-0.6477-0.287-0.1591-0.667-0.2387-1.142-0.2387h-1.858v7.7898h-1.056zm10.191 0.1193c-0.5 0-0.951-0.0994-1.351-0.2983-0.401-0.1988-0.722-0.4716-0.963-0.8182-0.242-0.3466-0.374-0.7414-0.397-1.1846h1.023c0.04 0.3949 0.219 0.7216 0.537 0.9801 0.321 0.2557 0.705 0.3835 1.151 0.3835 0.358 0 0.676-0.0838 0.954-0.2514 0.281-0.1676 0.502-0.3977 0.661-0.6903 0.162-0.2955 0.243-0.6293 0.243-1.0015 0-0.3806-0.084-0.7201-0.252-1.0184-0.165-0.3012-0.392-0.5384-0.682-0.7117-0.289-0.1733-0.62-0.2613-0.993-0.2642-0.267-0.0028-0.541 0.0384-0.822 0.1236-0.281 0.0824-0.513 0.1889-0.695 0.3196l-0.988-0.1193 0.528-4.2955h4.534v0.9375h-3.648l-0.306 2.5739h0.051c0.179-0.1421 0.403-0.26 0.673-0.3537 0.27-0.0938 0.551-0.1406 0.844-0.1406 0.534 0 1.01 0.1278 1.427 0.3835 0.421 0.2528 0.75 0.5994 0.989 1.0398 0.242 0.4403 0.362 0.9431 0.362 1.5085 0 0.5568-0.125 1.054-0.375 1.4915-0.247 0.4346-0.588 0.7784-1.022 1.0312-0.435 0.25-0.929 0.375-1.483 0.375zm10.454-8.8466h1.057v5.7784c0 0.5966-0.141 1.1293-0.422 1.598-0.279 0.466-0.672 0.8339-1.181 1.1037-0.508 0.2671-1.105 0.4006-1.789 0.4006-0.685 0-1.282-0.1335-1.79-0.4006-0.509-0.2698-0.904-0.6377-1.185-1.1037-0.278-0.4687-0.417-1.0014-0.417-1.598v-5.7784h1.056v5.6932c0 0.4261 0.094 0.8054 0.282 1.1378 0.187 0.3295 0.454 0.5895 0.801 0.7798 0.349 0.1875 0.767 0.2813 1.253 0.2813 0.485 0 0.903-0.0938 1.252-0.2813 0.35-0.1903 0.617-0.4503 0.802-0.7798 0.187-0.3324 0.281-0.7117 0.281-1.1378v-5.6932zm5.962 8.8466c-0.562 0-1.063-0.0966-1.504-0.2898-0.437-0.1931-0.785-0.4616-1.044-0.8054-0.255-0.3465-0.395-0.7485-0.417-1.2059h1.073c0.023 0.2812 0.12 0.5241 0.29 0.7287 0.171 0.2017 0.394 0.3579 0.669 0.4687 0.276 0.1108 0.581 0.1662 0.916 0.1662 0.375 0 0.708-0.0653 0.998-0.196 0.289-0.1307 0.517-0.3125 0.681-0.5455 0.165-0.2329 0.248-0.5028 0.248-0.8096 0-0.321-0.08-0.6037-0.239-0.848-0.159-0.2472-0.392-0.4404-0.699-0.5796s-0.682-0.2088-1.125-0.2088h-0.699v-0.9375h0.699c0.347 0 0.651-0.0625 0.912-0.1875 0.264-0.125 0.47-0.3011 0.618-0.5284 0.15-0.2273 0.226-0.4943 0.226-0.8011 0-0.2955-0.066-0.5526-0.196-0.7713-0.131-0.2188-0.316-0.3892-0.554-0.5114-0.236-0.1222-0.514-0.1832-0.835-0.1832-0.302 0-0.586 0.0554-0.853 0.1662-0.264 0.1079-0.48 0.2656-0.647 0.473-0.168 0.2045-0.259 0.4517-0.273 0.7414h-1.023c0.017-0.4573 0.155-0.8579 0.413-1.2017 0.259-0.3466 0.597-0.6164 1.015-0.8096 0.42-0.1932 0.882-0.2898 1.385-0.2898 0.539 0 1.002 0.1094 1.389 0.3281 0.386 0.2159 0.683 0.5015 0.89 0.8566 0.208 0.3551 0.311 0.7386 0.311 1.1505 0 0.4915-0.129 0.9105-0.387 1.2571-0.256 0.3466-0.604 0.5867-1.044 0.7202v0.0682c0.551 0.0909 0.981 0.3253 1.291 0.7031 0.31 0.375 0.464 0.8395 0.464 1.3935 0 0.4744-0.129 0.9005-0.387 1.2784-0.256 0.375-0.606 0.6704-1.049 0.8864-0.443 0.2159-0.947 0.3238-1.513 0.3238zm7.351 2.4716c-0.485 0-0.903-0.0625-1.252-0.1875-0.35-0.1222-0.641-0.2841-0.874-0.4858-0.23-0.1988-0.413-0.4119-0.55-0.6392l0.801-0.5625c0.091 0.1193 0.206 0.2557 0.346 0.4091 0.139 0.1562 0.329 0.2912 0.571 0.4048 0.244 0.1165 0.563 0.1747 0.958 0.1747 0.529 0 0.965-0.1278 1.309-0.3835 0.343-0.2557 0.515-0.6562 0.515-1.2017v-1.3295h-0.085c-0.074 0.1193-0.179 0.267-0.315 0.4432-0.134 0.1732-0.327 0.3281-0.58 0.4644-0.25 0.1336-0.588 0.2003-1.014 0.2003-0.529 0-1.003-0.125-1.423-0.375-0.418-0.25-0.749-0.6136-0.993-1.0909-0.242-0.4773-0.363-1.0568-0.363-1.7386 0-0.6705 0.118-1.2543 0.354-1.7514 0.236-0.5 0.564-0.8864 0.985-1.1591 0.42-0.2756 0.906-0.4134 1.457-0.4134 0.426 0 0.764 0.071 1.014 0.2131 0.253 0.1392 0.446 0.2983 0.58 0.4773 0.136 0.1761 0.241 0.321 0.315 0.4346h0.102v-1.0398h0.972v6.733c0 0.5625-0.128 1.0199-0.384 1.3722-0.252 0.3551-0.593 0.615-1.022 0.7798-0.426 0.1676-0.901 0.2514-1.424 0.2514zm-0.034-3.5966c0.404 0 0.745-0.0923 1.023-0.277 0.278-0.1846 0.49-0.4503 0.635-0.7968 0.145-0.3466 0.217-0.7614 0.217-1.2444 0-0.4716-0.071-0.8877-0.213-1.2485s-0.352-0.6435-0.63-0.8481c-0.279-0.2045-0.623-0.3068-1.032-0.3068-0.426 0-0.781 0.108-1.065 0.3239-0.281 0.2159-0.493 0.5057-0.635 0.8693-0.139 0.3636-0.209 0.7671-0.209 1.2102 0 0.4546 0.071 0.8566 0.213 1.206 0.145 0.3466 0.358 0.6193 0.639 0.8182 0.285 0.196 0.637 0.294 1.057 0.294zm3.755-6.7841v-0.9375h6.545v0.9375h-2.744v7.7898h-1.057v-7.7898h-2.744zm11.091-0.9375v8.7273h-1.057v-7.6193h-0.051l-2.131 1.4148v-1.0739l2.182-1.4489h1.057zm5.356 8.7273h-2.693v-8.7273h2.813c0.846 0 1.571 0.1747 2.173 0.5242 0.602 0.3466 1.064 0.8451 1.385 1.4957 0.321 0.6477 0.481 1.4233 0.481 2.3267 0 0.9091-0.162 1.6918-0.485 2.348-0.324 0.6534-0.796 1.1563-1.415 1.5086-0.619 0.3494-1.372 0.5241-2.259 0.5241zm-1.636-0.9375h1.568c0.722 0 1.32-0.1392 1.794-0.4176 0.475-0.2784 0.828-0.6747 1.061-1.1889s0.35-1.1265 0.35-1.8367c0-0.7045-0.115-1.3111-0.345-1.8196-0.231-0.5113-0.574-0.9034-1.032-1.1761-0.457-0.2756-1.027-0.4134-1.709-0.4134h-1.687v6.8523zm10.483-7.7898v8.7273h-1.057v-7.6193h-0.051l-2.131 1.4148v-1.0739l2.182-1.4489h1.057zm6.004 0h1.057v6.2387c0 0.5568-0.102 1.0298-0.307 1.419-0.204 0.3892-0.493 0.6847-0.865 0.8864s-0.811 0.3025-1.317 0.3025c-0.477 0-0.902-0.0866-1.274-0.2599-0.372-0.1762-0.665-0.4262-0.878-0.75-0.213-0.3239-0.319-0.7088-0.319-1.1549h1.04c0 0.2472 0.061 0.4631 0.183 0.6478 0.125 0.1818 0.295 0.3238 0.511 0.4261s0.462 0.1534 0.737 0.1534c0.304 0 0.563-0.0639 0.776-0.1917 0.213-0.1279 0.375-0.3154 0.486-0.5625 0.113-0.25 0.17-0.5554 0.17-0.9162v-6.2387zm3.686 11.182c-0.17 0-0.322-0.0142-0.456-0.0426-0.133-0.0255-0.226-0.0511-0.277-0.0767l0.256-0.8863c0.244 0.0625 0.46 0.0852 0.648 0.0681 0.187-0.017 0.353-0.1008 0.498-0.2514 0.148-0.1477 0.283-0.3878 0.405-0.7201l0.188-0.5114-2.421-6.5796h1.091l1.807 5.216h0.068l1.807-5.216h1.091l-2.779 7.5c-0.125 0.3381-0.279 0.6179-0.464 0.8395-0.185 0.2245-0.399 0.3907-0.644 0.4986-0.241 0.108-0.514 0.1619-0.818 0.1619zm9.083-11.182v8.7273h-1.056v-7.6193h-0.052l-2.13 1.4148v-1.0739l2.182-1.4489h1.056zm9.686 2.7273h-1.056c-0.063-0.304-0.172-0.571-0.329-0.8011-0.153-0.2301-0.34-0.4233-0.562-0.5796-0.219-0.1591-0.462-0.2784-0.729-0.3579-0.267-0.0796-0.545-0.1194-0.835-0.1194-0.528 0-1.007 0.1336-1.436 0.4006-0.426 0.2671-0.766 0.6605-1.018 1.1804-0.25 0.5199-0.375 1.1577-0.375 1.9134 0 0.7556 0.125 1.3934 0.375 1.9133 0.252 0.5199 0.592 0.9134 1.018 1.1804 0.429 0.2671 0.908 0.4006 1.436 0.4006 0.29 0 0.568-0.0398 0.835-0.1193 0.267-0.0796 0.51-0.1975 0.729-0.3537 0.222-0.1591 0.409-0.3537 0.562-0.5838 0.157-0.233 0.266-0.5 0.329-0.8012h1.056c-0.079 0.446-0.224 0.8452-0.434 1.1975-0.21 0.3522-0.472 0.652-0.784 0.8991-0.313 0.2443-0.664 0.4304-1.053 0.5583-0.386 0.1278-0.8 0.1917-1.24 0.1917-0.744 0-1.406-0.1818-1.986-0.5454-0.579-0.3637-1.035-0.8807-1.368-1.5512-0.332-0.6704-0.498-1.4659-0.498-2.3863 0-0.9205 0.166-1.7159 0.498-2.3864 0.333-0.6705 0.789-1.1875 1.368-1.5511 0.58-0.3637 1.242-0.5455 1.986-0.5455 0.44 0 0.854 0.0639 1.24 0.1918 0.389 0.1278 0.74 0.3153 1.053 0.5625 0.312 0.2443 0.574 0.5426 0.784 0.8949 0.21 0.3494 0.355 0.7485 0.434 1.1974zm4.316 6.1364c-0.631 0-1.175-0.1392-1.632-0.4176-0.455-0.2813-0.805-0.6733-1.053-1.1762-0.244-0.5057-0.366-1.0937-0.366-1.7642 0-0.6704 0.122-1.2614 0.366-1.7727 0.248-0.5142 0.591-0.9148 1.032-1.2017 0.443-0.2898 0.96-0.4347 1.551-0.4347 0.341 0 0.677 0.0568 1.01 0.1705 0.332 0.1136 0.635 0.2983 0.907 0.554 0.273 0.2528 0.491 0.588 0.652 1.0056 0.162 0.4176 0.243 0.9318 0.243 1.5426v0.4262h-5.045v-0.8693h4.023c0-0.3694-0.074-0.6989-0.222-0.9887-0.145-0.2897-0.352-0.5184-0.622-0.6861-0.267-0.1676-0.583-0.2514-0.946-0.2514-0.401 0-0.747 0.0995-1.04 0.2983-0.29 0.196-0.513 0.4517-0.669 0.7671-0.156 0.3153-0.234 0.6534-0.234 1.0142v0.5795c0 0.4943 0.085 0.9134 0.255 1.2571 0.174 0.3409 0.414 0.6009 0.721 0.7799 0.306 0.1761 0.663 0.2642 1.069 0.2642 0.264 0 0.503-0.037 0.716-0.1108 0.216-0.0767 0.402-0.1904 0.558-0.341 0.157-0.1534 0.277-0.3437 0.362-0.571l0.972 0.2728c-0.102 0.3295-0.274 0.6193-0.516 0.8693-0.241 0.2471-0.539 0.4403-0.894 0.5795-0.356 0.1364-0.755 0.2046-1.198 0.2046zm6.95-0.0171c-0.5 0-0.95-0.0994-1.35-0.2983-0.401-0.1988-0.722-0.4716-0.964-0.8182-0.241-0.3466-0.373-0.7414-0.396-1.1846h1.023c0.04 0.3949 0.219 0.7216 0.537 0.9801 0.321 0.2557 0.704 0.3835 1.15 0.3835 0.358 0 0.677-0.0838 0.955-0.2514 0.281-0.1676 0.501-0.3977 0.66-0.6903 0.162-0.2955 0.243-0.6293 0.243-1.0015 0-0.3806-0.083-0.7201-0.251-1.0184-0.165-0.3012-0.392-0.5384-0.682-0.7117s-0.621-0.2613-0.993-0.2642c-0.267-0.0028-0.541 0.0384-0.822 0.1236-0.281 0.0824-0.513 0.1889-0.695 0.3196l-0.988-0.1193 0.528-4.2955h4.534v0.9375h-3.648l-0.307 2.5739h0.052c0.179-0.1421 0.403-0.26 0.673-0.3537 0.27-0.0938 0.551-0.1406 0.844-0.1406 0.534 0 1.01 0.1278 1.427 0.3835 0.421 0.2528 0.75 0.5994 0.989 1.0398 0.241 0.4403 0.362 0.9431 0.362 1.5085 0 0.5568-0.125 1.054-0.375 1.4915-0.247 0.4346-0.588 0.7784-1.023 1.0312-0.434 0.25-0.929 0.375-1.483 0.375zm5.528-2.5057-0.017-1.2443h0.205l2.864-2.9148h1.244l-3.051 3.0853h-0.085l-1.16 1.0738zm-0.937 2.3864v-8.7273h1.006v8.7273h-1.006zm4.159 0-2.557-3.2386 0.716-0.6989 3.119 3.9375h-1.278zm5.283-6.5455v0.8523h-3.528v-0.8523h3.528zm-2.472 6.5455v-7.4489c0-0.375 0.089-0.6875 0.265-0.9375s0.405-0.4375 0.686-0.5625 0.578-0.1875 0.89-0.1875c0.248 0 0.449 0.0199 0.606 0.0597 0.156 0.0398 0.272 0.0767 0.349 0.1108l-0.29 0.8693c-0.051-0.017-0.122-0.0383-0.213-0.0639-0.088-0.0256-0.204-0.0384-0.349-0.0384-0.333 0-0.573 0.0838-0.721 0.2515-0.144 0.1676-0.217 0.4133-0.217 0.7372v7.2102h-1.006zm9.234-6.5455-2.421 6.5455h-1.022l-2.421-6.5455h1.091l1.807 5.216h0.068l1.807-5.216h1.091zm7.429 0.5455c-0.093-0.2869-0.217-0.544-0.37-0.7713-0.151-0.2301-0.331-0.4261-0.541-0.5881-0.208-0.1619-0.444-0.2855-0.708-0.3707s-0.554-0.1279-0.869-0.1279c-0.517 0-0.987 0.1336-1.411 0.4006-0.423 0.2671-0.76 0.6605-1.01 1.1804s-0.375 1.1577-0.375 1.9134c0 0.7556 0.127 1.3934 0.38 1.9133 0.252 0.5199 0.595 0.9134 1.027 1.1804 0.431 0.2671 0.917 0.4006 1.457 0.4006 0.5 0 0.94-0.1066 1.321-0.3196 0.384-0.2159 0.682-0.5199 0.895-0.912 0.216-0.3948 0.324-0.8593 0.324-1.3934l0.324 0.0682h-2.625v-0.9375h3.324v0.9375c0 0.7187-0.154 1.3437-0.461 1.875-0.304 0.5312-0.724 0.9431-1.261 1.2358-0.534 0.2897-1.148 0.4346-1.841 0.4346-0.773 0-1.452-0.1818-2.037-0.5454-0.582-0.3637-1.037-0.8807-1.364-1.5512-0.323-0.6704-0.485-1.4659-0.485-2.3863 0-0.6904 0.092-1.3111 0.277-1.8623 0.187-0.5539 0.451-1.0255 0.792-1.4147s0.745-0.6875 1.21-0.8949c0.466-0.2074 0.979-0.3111 1.539-0.3111 0.46 0 0.889 0.0696 1.287 0.2088 0.4 0.1364 0.757 0.331 1.069 0.5838 0.316 0.25 0.579 0.5497 0.789 0.8992 0.21 0.3466 0.355 0.7315 0.434 1.1548h-1.091zm4.742 6.1534c-0.414 0-0.791-0.0781-1.129-0.2344-0.338-0.1591-0.606-0.3878-0.805-0.686-0.199-0.3012-0.299-0.6648-0.299-1.091 0-0.375 0.074-0.6789 0.222-0.9119 0.148-0.2358 0.345-0.4204 0.592-0.554 0.247-0.1335 0.52-0.2329 0.818-0.2983 0.302-0.0681 0.604-0.1221 0.908-0.1619 0.398-0.0511 0.72-0.0895 0.967-0.115 0.25-0.0285 0.432-0.0753 0.546-0.1407 0.116-0.0653 0.175-0.179 0.175-0.3409v-0.0341c0-0.4204-0.115-0.7471-0.346-0.9801-0.227-0.2329-0.572-0.3494-1.035-0.3494-0.48 0-0.857 0.1051-1.129 0.3153-0.273 0.2102-0.465 0.4347-0.576 0.6733l-0.954-0.3409c0.17-0.3977 0.398-0.7074 0.682-0.929 0.287-0.2244 0.599-0.3807 0.937-0.4687 0.341-0.0909 0.676-0.1364 1.006-0.1364 0.21 0 0.452 0.0256 0.724 0.0767 0.276 0.0483 0.541 0.1492 0.797 0.3026 0.259 0.1534 0.473 0.3849 0.644 0.6946 0.17 0.3096 0.255 0.7244 0.255 1.2443v4.3125h-1.005v-0.8864h-0.052c-0.068 0.1421-0.181 0.2941-0.34 0.456-0.16 0.1619-0.371 0.2997-0.635 0.4134-0.265 0.1136-0.587 0.1704-0.968 0.1704zm0.154-0.9034c0.397 0 0.733-0.0781 1.005-0.2344 0.276-0.1562 0.483-0.3579 0.623-0.6051 0.142-0.2471 0.213-0.5071 0.213-0.7798v-0.9205c-0.043 0.0512-0.137 0.098-0.282 0.1407-0.142 0.0397-0.306 0.0752-0.494 0.1065-0.185 0.0284-0.365 0.054-0.541 0.0767-0.173 0.0199-0.314 0.0369-0.422 0.0511-0.261 0.0341-0.506 0.0895-0.733 0.1662-0.224 0.0739-0.406 0.1861-0.545 0.3367-0.137 0.1477-0.205 0.3494-0.205 0.6051 0 0.3494 0.129 0.6136 0.388 0.7926 0.261 0.1761 0.592 0.2642 0.993 0.2642zm4.682 0.75v-6.5455h1.006v6.5455h-1.006zm0.511-7.6364c-0.196 0-0.365-0.0667-0.507-0.2002-0.139-0.1336-0.209-0.2941-0.209-0.4816s0.07-0.348 0.209-0.4815c0.142-0.1335 0.311-0.2003 0.507-0.2003s0.364 0.0668 0.503 0.2003c0.142 0.1335 0.213 0.294 0.213 0.4815s-0.071 0.348-0.213 0.4816c-0.139 0.1335-0.307 0.2002-0.503 0.2002zm5.098-1.2102c0.358 0.0028 0.716 0.071 1.074 0.2046 0.358 0.1335 0.684 0.3551 0.98 0.6647 0.295 0.3068 0.533 0.7259 0.712 1.2571 0.179 0.5313 0.268 1.1975 0.268 1.9986 0 0.7756-0.074 1.4645-0.222 2.0668-0.144 0.5994-0.355 1.1051-0.63 1.517-0.273 0.4119-0.605 0.7244-0.997 0.9375-0.39 0.2131-0.83 0.3196-1.321 0.3196-0.489 0-0.925-0.0966-1.309-0.2898-0.38-0.196-0.693-0.4673-0.937-0.8139-0.242-0.3494-0.396-0.7542-0.465-1.2145h1.04c0.094 0.4006 0.28 0.7316 0.558 0.9929 0.282 0.2586 0.652 0.3878 1.113 0.3878 0.673 0 1.204-0.294 1.593-0.8821 0.392-0.5881 0.588-1.419 0.588-2.4929h-0.068c-0.159 0.2387-0.348 0.4446-0.567 0.6179-0.218 0.1733-0.461 0.3068-0.728 0.4006-0.267 0.0937-0.551 0.1406-0.853 0.1406-0.5 0-0.958-0.1236-1.376-0.3707-0.415-0.25-0.747-0.5924-0.997-1.027-0.247-0.4375-0.371-0.9375-0.371-1.5 0-0.5341 0.119-1.0227 0.358-1.4659 0.242-0.4461 0.58-0.8012 1.014-1.0654 0.438-0.2642 0.952-0.392 1.543-0.3835zm0 0.9375c-0.358 0-0.68 0.0895-0.967 0.2685-0.285 0.1761-0.51 0.4147-0.678 0.7159-0.165 0.2983-0.247 0.6292-0.247 0.9929 0 0.3636 0.079 0.6946 0.239 0.9929 0.161 0.2954 0.382 0.5312 0.66 0.7074 0.281 0.1733 0.601 0.2599 0.959 0.2599 0.27 0 0.521-0.0525 0.754-0.1577 0.233-0.1079 0.436-0.2542 0.609-0.4389 0.177-0.1875 0.314-0.3991 0.414-0.6349 0.099-0.2387 0.149-0.4872 0.149-0.7458 0-0.3409-0.082-0.6605-0.247-0.9588-0.162-0.2983-0.387-0.5397-0.673-0.7244-0.285-0.1847-0.608-0.277-0.972-0.277zm10.829 1.9091c-0.094-0.2869-0.217-0.544-0.371-0.7713-0.15-0.2301-0.331-0.4261-0.541-0.5881-0.207-0.1619-0.443-0.2855-0.707-0.3707s-0.554-0.1279-0.87-0.1279c-0.517 0-0.987 0.1336-1.41 0.4006-0.423 0.2671-0.76 0.6605-1.01 1.1804s-0.375 1.1577-0.375 1.9134c0 0.7556 0.126 1.3934 0.379 1.9133s0.595 0.9134 1.027 1.1804c0.432 0.2671 0.918 0.4006 1.458 0.4006 0.5 0 0.94-0.1066 1.321-0.3196 0.383-0.2159 0.681-0.5199 0.895-0.912 0.215-0.3948 0.323-0.8593 0.323-1.3934l0.324 0.0682h-2.625v-0.9375h3.324v0.9375c0 0.7187-0.153 1.3437-0.46 1.875-0.304 0.5312-0.725 0.9431-1.261 1.2358-0.535 0.2897-1.148 0.4346-1.841 0.4346-0.773 0-1.452-0.1818-2.037-0.5454-0.583-0.3637-1.037-0.8807-1.364-1.5512-0.324-0.6704-0.486-1.4659-0.486-2.3863 0-0.6904 0.093-1.3111 0.277-1.8623 0.188-0.5539 0.452-1.0255 0.793-1.4147s0.744-0.6875 1.21-0.8949 0.979-0.3111 1.538-0.3111c0.461 0 0.89 0.0696 1.287 0.2088 0.401 0.1364 0.758 0.331 1.07 0.5838 0.315 0.25 0.578 0.5497 0.788 0.8992 0.211 0.3466 0.355 0.7315 0.435 1.1548h-1.091zm2.628 6v-0.767l3.716-4.7728v-0.0682h-3.596v-0.9375h4.892v0.8012l-3.614 4.7386v0.0682h3.733v0.9375h-5.131zm9.731-8.7273v8.7273h-1.057v-7.6193h-0.051l-2.131 1.4148v-1.0739l2.182-1.4489h1.057zm5.442 2.1818v0.8523h-3.529v-0.8523h3.529zm-2.472 6.5455v-7.4489c0-0.375 0.088-0.6875 0.264-0.9375 0.177-0.25 0.405-0.4375 0.687-0.5625 0.281-0.125 0.578-0.1875 0.89-0.1875 0.247 0 0.449 0.0199 0.605 0.0597 0.157 0.0398 0.273 0.0767 0.35 0.1108l-0.29 0.8693c-0.051-0.017-0.122-0.0383-0.213-0.0639-0.088-0.0256-0.205-0.0384-0.35-0.0384-0.332 0-0.572 0.0838-0.72 0.2515-0.145 0.1676-0.217 0.4133-0.217 0.7372v7.2102h-1.006zm6.66 0.1193c-0.585 0-1.103-0.1037-1.551-0.3111-0.446-0.2102-0.794-0.4985-1.044-0.865-0.25-0.3693-0.374-0.7898-0.371-1.2614-3e-3 -0.3693 0.069-0.7102 0.217-1.0227 0.148-0.3154 0.35-0.5781 0.605-0.7884 0.259-0.213 0.547-0.348 0.865-0.4048v-0.0511c-0.417-0.108-0.75-0.3424-0.997-0.7032-0.247-0.3636-0.369-0.7769-0.366-1.24-3e-3 -0.4432 0.109-0.8395 0.336-1.1889 0.228-0.3495 0.54-0.625 0.938-0.8267 0.4-0.2017 0.856-0.3026 1.368-0.3026 0.505 0 0.957 0.1009 1.355 0.3026s0.71 0.4772 0.937 0.8267c0.23 0.3494 0.347 0.7457 0.35 1.1889-3e-3 0.4631-0.129 0.8764-0.379 1.24-0.248 0.3608-0.576 0.5952-0.985 0.7032v0.0511c0.315 0.0568 0.6 0.1918 0.852 0.4048 0.253 0.2103 0.455 0.473 0.606 0.7884 0.15 0.3125 0.227 0.6534 0.23 1.0227-3e-3 0.4716-0.131 0.8921-0.384 1.2614-0.25 0.3665-0.598 0.6548-1.044 0.865-0.443 0.2074-0.956 0.3111-1.538 0.3111zm0-0.9375c0.395 0 0.736-0.0639 1.022-0.1917 0.287-0.1279 0.509-0.3083 0.665-0.5412 0.156-0.233 0.236-0.5057 0.239-0.8182-3e-3 -0.3296-0.088-0.6208-0.256-0.8736-0.167-0.2528-0.396-0.4517-0.686-0.5966-0.287-0.1449-0.615-0.2173-0.984-0.2173-0.372 0-0.705 0.0724-0.997 0.2173-0.29 0.1449-0.519 0.3438-0.686 0.5966-0.165 0.2528-0.246 0.544-0.243 0.8736-3e-3 0.3125 0.072 0.5852 0.225 0.8182 0.157 0.2329 0.38 0.4133 0.669 0.5412 0.29 0.1278 0.634 0.1917 1.032 0.1917zm0-4.142c0.312 0 0.589-0.0625 0.831-0.1875 0.244-0.125 0.436-0.2997 0.575-0.5242 0.139-0.2244 0.21-0.4872 0.213-0.7883-3e-3 -0.2955-0.072-0.5526-0.209-0.7713-0.136-0.2216-0.325-0.3921-0.567-0.5114-0.241-0.1222-0.522-0.1832-0.843-0.1832-0.327 0-0.612 0.061-0.857 0.1832-0.244 0.1193-0.433 0.2898-0.567 0.5114-0.133 0.2187-0.198 0.4758-0.196 0.7713-2e-3 0.3011 0.064 0.5639 0.201 0.7883 0.139 0.2245 0.331 0.3992 0.575 0.5242s0.526 0.1875 0.844 0.1875zm7.497 5.0795c-0.358-0.0057-0.716-0.0738-1.074-0.2045s-0.685-0.3509-0.98-0.6605c-0.296-0.3125-0.533-0.7344-0.712-1.2657-0.179-0.5341-0.269-1.2045-0.269-2.0113 0-0.7728 0.073-1.4574 0.218-2.054 0.145-0.5994 0.355-1.1037 0.63-1.5128 0.276-0.4119 0.608-0.7244 0.998-0.9375 0.392-0.2131 0.833-0.3196 1.325-0.3196 0.489 0 0.923 0.098 1.304 0.294 0.383 0.1932 0.696 0.4631 0.937 0.8097 0.242 0.3466 0.398 0.7457 0.469 1.1974h-1.04c-0.096-0.392-0.284-0.7173-0.562-0.9758-0.279-0.2585-0.648-0.3878-1.108-0.3878-0.676 0-1.209 0.294-1.598 0.8821-0.386 0.5881-0.581 1.4134-0.584 2.4759h0.068c0.159-0.2415 0.348-0.4475 0.567-0.6179 0.222-0.1733 0.466-0.3069 0.733-0.4006 0.267-0.0938 0.55-0.1406 0.848-0.1406 0.5 0 0.957 0.125 1.372 0.375 0.415 0.2471 0.747 0.5895 0.997 1.027 0.25 0.4346 0.375 0.9332 0.375 1.4957 0 0.5398-0.12 1.0341-0.362 1.483-0.241 0.446-0.581 0.8011-1.018 1.0653-0.435 0.2614-0.946 0.3892-1.534 0.3835zm0-0.9375c0.357 0 0.679-0.0895 0.963-0.2684 0.287-0.179 0.512-0.4191 0.677-0.7202 0.168-0.3012 0.252-0.6364 0.252-1.0057 0-0.3608-0.081-0.6889-0.243-0.9844-0.159-0.2983-0.38-0.5355-0.661-0.7116-0.278-0.1762-0.596-0.2642-0.954-0.2642-0.27 0-0.522 0.0539-0.755 0.1619-0.233 0.1051-0.437 0.25-0.613 0.4347-0.174 0.1846-0.31 0.3963-0.409 0.6349-0.1 0.2358-0.15 0.4844-0.15 0.7457 0 0.3466 0.081 0.6705 0.243 0.9716 0.165 0.3012 0.39 0.5441 0.674 0.7287 0.287 0.1847 0.612 0.277 0.976 0.277zm10.471-7.9091h1.057v5.7784c0 0.5966-0.141 1.1293-0.422 1.598-0.279 0.466-0.672 0.8339-1.181 1.1037-0.508 0.2671-1.105 0.4006-1.789 0.4006-0.685 0-1.282-0.1335-1.79-0.4006-0.509-0.2698-0.904-0.6377-1.185-1.1037-0.278-0.4687-0.417-1.0014-0.417-1.598v-5.7784h1.056v5.6932c0 0.4261 0.094 0.8054 0.282 1.1378 0.187 0.3295 0.454 0.5895 0.801 0.7798 0.349 0.1875 0.767 0.2813 1.253 0.2813 0.485 0 0.903-0.0938 1.252-0.2813 0.35-0.1903 0.617-0.4503 0.802-0.7798 0.187-0.3324 0.281-0.7117 0.281-1.1378v-5.6932zm2.877 8.7273v-0.767l4.705-7.0228h-4.756v-0.9375h6.017v0.7671l-4.704 7.0227h4.755v0.9375h-6.017zm10.923-4.8324v0.9375h-3.818v-0.9375h3.818zm4.599 4.9517c-0.642 0-1.189-0.1747-1.64-0.5241-0.452-0.3523-0.797-0.8622-1.036-1.5299-0.238-0.6704-0.358-1.4801-0.358-2.4289 0-0.9432 0.12-1.7486 0.358-2.4162 0.242-0.6705 0.588-1.1818 1.04-1.5341 0.454-0.3551 1-0.5327 1.636-0.5327 0.637 0 1.181 0.1776 1.632 0.5327 0.455 0.3523 0.802 0.8636 1.04 1.5341 0.242 0.6676 0.362 1.473 0.362 2.4162 0 0.9488-0.119 1.7585-0.358 2.4289-0.238 0.6677-0.583 1.1776-1.035 1.5299-0.452 0.3494-0.999 0.5241-1.641 0.5241zm0-0.9375c0.637 0 1.131-0.3068 1.483-0.9204 0.353-0.6137 0.529-1.4887 0.529-2.625 0-0.7557-0.081-1.3992-0.243-1.9304-0.159-0.5313-0.389-0.9361-0.691-1.2145-0.298-0.2784-0.657-0.4176-1.078-0.4176-0.63 0-1.123 0.311-1.478 0.9332-0.356 0.6193-0.533 1.4957-0.533 2.6293 0 0.7556 0.079 1.3977 0.239 1.9261 0.159 0.5284 0.387 0.9304 0.686 1.206 0.301 0.2755 0.663 0.4133 1.086 0.4133zm7.415 0.9546c-0.631 0-1.175-0.1392-1.632-0.4176-0.455-0.2813-0.805-0.6733-1.053-1.1762-0.244-0.5057-0.366-1.0937-0.366-1.7642 0-0.6704 0.122-1.2614 0.366-1.7727 0.248-0.5142 0.591-0.9148 1.032-1.2017 0.443-0.2898 0.96-0.4347 1.551-0.4347 0.341 0 0.677 0.0568 1.01 0.1705 0.332 0.1136 0.635 0.2983 0.907 0.554 0.273 0.2528 0.49 0.588 0.652 1.0056s0.243 0.9318 0.243 1.5426v0.4262h-5.045v-0.8693h4.023c0-0.3694-0.074-0.6989-0.222-0.9887-0.145-0.2897-0.352-0.5184-0.622-0.6861-0.267-0.1676-0.583-0.2514-0.946-0.2514-0.401 0-0.747 0.0995-1.04 0.2983-0.29 0.196-0.513 0.4517-0.669 0.7671-0.156 0.3153-0.234 0.6534-0.234 1.0142v0.5795c0 0.4943 0.085 0.9134 0.255 1.2571 0.174 0.3409 0.414 0.6009 0.72 0.7799 0.307 0.1761 0.664 0.2642 1.07 0.2642 0.264 0 0.503-0.037 0.716-0.1108 0.216-0.0767 0.402-0.1904 0.558-0.341 0.156-0.1534 0.277-0.3437 0.362-0.571l0.972 0.2728c-0.102 0.3295-0.274 0.6193-0.516 0.8693-0.241 0.2471-0.539 0.4403-0.895 0.5795-0.355 0.1364-0.754 0.2046-1.197 0.2046zm4.376-0.1364v-8.7273h1.057v4.3296h0.103l3.92-4.3296h1.381l-3.665 3.9375 3.665 4.7898h-1.279l-3.034-4.0568-1.091 1.2273v2.8295h-1.057zm11.17-8.7273h1.056v6.2387c0 0.5568-0.102 1.0298-0.306 1.419-0.205 0.3892-0.493 0.6847-0.866 0.8864-0.372 0.2017-0.811 0.3025-1.316 0.3025-0.478 0-0.902-0.0866-1.274-0.2599-0.373-0.1762-0.665-0.4262-0.878-0.75-0.213-0.3239-0.32-0.7088-0.32-1.1549h1.04c0 0.2472 0.061 0.4631 0.183 0.6478 0.125 0.1818 0.296 0.3238 0.511 0.4261 0.216 0.1023 0.462 0.1534 0.738 0.1534 0.304 0 0.562-0.0639 0.775-0.1917 0.213-0.1279 0.375-0.3154 0.486-0.5625 0.114-0.25 0.171-0.5554 0.171-0.9162v-6.2387zm3.038 2.1818h1.006v7.0228c0 0.4034-0.07 0.7528-0.209 1.0483-0.137 0.2954-0.344 0.5241-0.622 0.686-0.276 0.162-0.624 0.2429-1.044 0.2429h-0.103-0.102v-0.9375h0.094 0.093c0.307 0 0.532-0.0909 0.674-0.2727 0.142-0.179 0.213-0.4346 0.213-0.767v-7.0228zm0.494-1.0909c-0.196 0-0.365-0.0667-0.507-0.2002-0.139-0.1336-0.209-0.2941-0.209-0.4816s0.07-0.348 0.209-0.4815c0.142-0.1335 0.311-0.2003 0.507-0.2003s0.364 0.0668 0.503 0.2003c0.142 0.1335 0.213 0.294 0.213 0.4815s-0.071 0.348-0.213 0.4816c-0.139 0.1335-0.307 0.2002-0.503 0.2002zm5.234 7.7557c-0.358-0.0057-0.716-0.0738-1.074-0.2045s-0.684-0.3509-0.98-0.6605c-0.295-0.3125-0.532-0.7344-0.711-1.2657-0.179-0.5341-0.269-1.2045-0.269-2.0113 0-0.7728 0.073-1.4574 0.217-2.054 0.145-0.5994 0.356-1.1037 0.631-1.5128 0.276-0.4119 0.608-0.7244 0.997-0.9375 0.392-0.2131 0.834-0.3196 1.326-0.3196 0.488 0 0.923 0.098 1.304 0.294 0.383 0.1932 0.696 0.4631 0.937 0.8097 0.242 0.3466 0.398 0.7457 0.469 1.1974h-1.04c-0.097-0.392-0.284-0.7173-0.562-0.9758-0.279-0.2585-0.648-0.3878-1.108-0.3878-0.677 0-1.209 0.294-1.598 0.8821-0.387 0.5881-0.581 1.4134-0.584 2.4759h0.068c0.159-0.2415 0.348-0.4475 0.567-0.6179 0.221-0.1733 0.466-0.3069 0.733-0.4006 0.267-0.0938 0.549-0.1406 0.848-0.1406 0.5 0 0.957 0.125 1.372 0.375 0.415 0.2471 0.747 0.5895 0.997 1.027 0.25 0.4346 0.375 0.9332 0.375 1.4957 0 0.5398-0.121 1.0341-0.362 1.483-0.242 0.446-0.581 0.8011-1.019 1.0653-0.434 0.2614-0.946 0.3892-1.534 0.3835zm0-0.9375c0.358 0 0.679-0.0895 0.963-0.2684 0.287-0.179 0.513-0.4191 0.678-0.7202 0.167-0.3012 0.251-0.6364 0.251-1.0057 0-0.3608-0.081-0.6889-0.243-0.9844-0.159-0.2983-0.379-0.5355-0.66-0.7116-0.279-0.1762-0.597-0.2642-0.955-0.2642-0.27 0-0.521 0.0539-0.754 0.1619-0.233 0.1051-0.437 0.25-0.614 0.4347-0.173 0.1846-0.309 0.3963-0.409 0.6349-0.099 0.2358-0.149 0.4844-0.149 0.7457 0 0.3466 0.081 0.6705 0.243 0.9716 0.165 0.3012 0.389 0.5441 0.673 0.7287 0.287 0.1847 0.613 0.277 0.976 0.277zm5.256 3.2727c-0.171 0-0.323-0.0142-0.456-0.0426-0.134-0.0255-0.226-0.0511-0.277-0.0767l0.255-0.8863c0.245 0.0625 0.46 0.0852 0.648 0.0681 0.187-0.017 0.354-0.1008 0.499-0.2514 0.147-0.1477 0.282-0.3878 0.404-0.7201l0.188-0.5114-2.421-6.5796h1.091l1.807 5.216h0.068l1.807-5.216h1.091l-2.778 7.5c-0.125 0.3381-0.28 0.6179-0.465 0.8395-0.184 0.2245-0.399 0.3907-0.643 0.4986-0.242 0.108-0.514 0.1619-0.818 0.1619zm10.263 0v-3.4602h-0.085c-0.074 0.1193-0.179 0.2699-0.316 0.4517-0.136 0.179-0.331 0.3395-0.583 0.4816-0.253 0.1392-0.59 0.2088-1.01 0.2088-0.546 0-1.027-0.1378-1.445-0.4134-0.418-0.2784-0.744-0.6704-0.98-1.1761-0.236-0.5085-0.354-1.1094-0.354-1.8026 0-0.6875 0.118-1.2841 0.354-1.7898 0.236-0.5056 0.564-0.8963 0.984-1.1718 0.421-0.2756 0.907-0.4134 1.458-0.4134 0.426 0 0.763 0.071 1.01 0.2131 0.25 0.1392 0.44 0.2983 0.571 0.4773 0.133 0.1761 0.237 0.321 0.311 0.4346h0.119v-1.0398h0.972v9h-1.006zm-1.858-3.2215c0.403 0 0.744-0.1052 1.023-0.3154 0.278-0.2131 0.49-0.5071 0.635-0.8821 0.145-0.3778 0.217-0.8139 0.217-1.3082 0-0.4887-0.071-0.9162-0.213-1.2827-0.142-0.3693-0.352-0.6562-0.631-0.8608-0.278-0.2074-0.622-0.3111-1.031-0.3111-0.426 0-0.781 0.1094-1.065 0.3282-0.282 0.2159-0.493 0.5099-0.635 0.8821-0.139 0.3693-0.209 0.784-0.209 1.2443 0 0.4659 0.071 0.8892 0.213 1.2699 0.145 0.3778 0.358 0.6789 0.639 0.9034 0.284 0.2216 0.637 0.3324 1.057 0.3324zm8.504 0.767h-1.108l3.204-8.7273h1.091l3.205 8.7273h-1.108l-2.608-7.3466h-0.068l-2.608 7.3466zm0.409-3.4091h4.466v0.9375h-4.466v-0.9375zm7.7 3.4091h-1.108l3.205-8.7273h1.09l3.205 8.7273h-1.108l-2.608-7.3466h-0.068l-2.608 7.3466zm0.409-3.4091h4.466v0.9375h-4.466v-0.9375zm7.7 3.4091h-1.108l3.205-8.7273h1.091l3.204 8.7273h-1.108l-2.607-7.3466h-0.069l-2.608 7.3466zm0.409-3.4091h4.466v0.9375h-4.466v-0.9375zm7.701 3.4091h-1.108l3.204-8.7273h1.091l3.205 8.7273h-1.108l-2.608-7.3466h-0.068l-2.608 7.3466zm0.409-3.4091h4.466v0.9375h-4.466v-0.9375zm7.7 3.4091h-1.108l3.205-8.7273h1.091l3.204 8.7273h-1.108l-2.608-7.3466h-0.068l-2.608 7.3466zm0.409-3.4091h4.466v0.9375h-4.466v-0.9375zm12.898-2.5909c-0.093-0.2869-0.217-0.544-0.37-0.7713-0.151-0.2301-0.331-0.4261-0.542-0.5881-0.207-0.1619-0.443-0.2855-0.707-0.3707s-0.554-0.1279-0.869-0.1279c-0.517 0-0.988 0.1336-1.411 0.4006-0.423 0.2671-0.76 0.6605-1.01 1.1804s-0.375 1.1577-0.375 1.9134c0 0.7556 0.127 1.3934 0.379 1.9133 0.253 0.5199 0.596 0.9134 1.027 1.1804 0.432 0.2671 0.918 0.4006 1.458 0.4006 0.5 0 0.94-0.1066 1.321-0.3196 0.383-0.2159 0.682-0.5199 0.895-0.912 0.216-0.3948 0.324-0.8593 0.324-1.3934l0.323 0.0682h-2.625v-0.9375h3.324v0.9375c0 0.7187-0.153 1.3437-0.46 1.875-0.304 0.5312-0.724 0.9431-1.261 1.2358-0.534 0.2897-1.148 0.4346-1.841 0.4346-0.773 0-1.452-0.1818-2.037-0.5454-0.582-0.3637-1.037-0.8807-1.364-1.5512-0.324-0.6704-0.486-1.4659-0.486-2.3863 0-0.6904 0.093-1.3111 0.277-1.8623 0.188-0.5539 0.452-1.0255 0.793-1.4147s0.744-0.6875 1.21-0.8949 0.979-0.3111 1.539-0.3111c0.46 0 0.889 0.0696 1.287 0.2088 0.4 0.1364 0.757 0.331 1.069 0.5838 0.316 0.25 0.578 0.5497 0.789 0.8992 0.21 0.3466 0.355 0.7315 0.434 1.1548h-1.091zm6.123 3.2727h1.159l0.971 1.2784 0.256 0.3409 1.449 1.9262h-1.159l-0.955-1.2784-0.238-0.3239-1.483-1.9432zm4.193-1.6363c0 0.9204-0.166 1.7159-0.499 2.3863-0.332 0.6705-0.788 1.1875-1.367 1.5512-0.58 0.3636-1.242 0.5454-1.986 0.5454-0.745 0-1.407-0.1818-1.986-0.5454-0.58-0.3637-1.036-0.8807-1.368-1.5512-0.332-0.6704-0.499-1.4659-0.499-2.3863 0-0.9205 0.167-1.7159 0.499-2.3864s0.788-1.1875 1.368-1.5511c0.579-0.3637 1.241-0.5455 1.986-0.5455 0.744 0 1.406 0.1818 1.986 0.5455 0.579 0.3636 1.035 0.8806 1.367 1.5511 0.333 0.6705 0.499 1.4659 0.499 2.3864zm-1.023 0c0-0.7557-0.126-1.3935-0.379-1.9134-0.25-0.5199-0.589-0.9133-1.018-1.1804-0.427-0.267-0.904-0.4006-1.432-0.4006-0.529 0-1.007 0.1336-1.436 0.4006-0.427 0.2671-0.766 0.6605-1.019 1.1804-0.25 0.5199-0.375 1.1577-0.375 1.9134 0 0.7556 0.125 1.3934 0.375 1.9133 0.253 0.5199 0.592 0.9134 1.019 1.1804 0.429 0.2671 0.907 0.4006 1.436 0.4006 0.528 0 1.005-0.1335 1.432-0.4006 0.429-0.267 0.768-0.6605 1.018-1.1804 0.253-0.5199 0.379-1.1577 0.379-1.9133zm2.647 4.3636v-0.767l2.88-3.1535c0.338-0.3693 0.617-0.6903 0.835-0.963 0.219-0.2756 0.381-0.5341 0.486-0.7756 0.108-0.2443 0.162-0.5 0.162-0.767 0-0.3069-0.074-0.5725-0.221-0.7969-0.145-0.2244-0.344-0.3977-0.597-0.5199s-0.537-0.1832-0.852-0.1832c-0.335 0-0.628 0.0696-0.878 0.2088-0.247 0.1363-0.439 0.3281-0.575 0.5753-0.134 0.2471-0.201 0.5369-0.201 0.8693h-1.005c0-0.5114 0.118-0.9603 0.353-1.3466 0.236-0.3864 0.557-0.6875 0.963-0.9034 0.41-0.2159 0.868-0.3239 1.377-0.3239 0.511 0 0.964 0.108 1.359 0.3239s0.705 0.5071 0.929 0.8736c0.225 0.3664 0.337 0.7741 0.337 1.223 0 0.321-0.058 0.6349-0.175 0.9417-0.114 0.304-0.312 0.6435-0.596 1.0185-0.282 0.3721-0.672 0.8267-1.172 1.3636l-1.961 2.0966v0.0682h4.057v0.9375h-5.505zm10.163 0.1193c-0.358-0.0057-0.716-0.0738-1.074-0.2045s-0.685-0.3509-0.98-0.6605c-0.296-0.3125-0.533-0.7344-0.712-1.2657-0.179-0.5341-0.268-1.2045-0.268-2.0113 0-0.7728 0.072-1.4574 0.217-2.054 0.145-0.5994 0.355-1.1037 0.631-1.5128 0.275-0.4119 0.608-0.7244 0.997-0.9375 0.392-0.2131 0.834-0.3196 1.325-0.3196 0.489 0 0.924 0.098 1.304 0.294 0.384 0.1932 0.696 0.4631 0.938 0.8097 0.241 0.3466 0.397 0.7457 0.469 1.1974h-1.04c-0.097-0.392-0.284-0.7173-0.563-0.9758-0.278-0.2585-0.647-0.3878-1.108-0.3878-0.676 0-1.209 0.294-1.598 0.8821-0.386 0.5881-0.581 1.4134-0.584 2.4759h0.069c0.159-0.2415 0.348-0.4475 0.566-0.6179 0.222-0.1733 0.466-0.3069 0.733-0.4006 0.267-0.0938 0.55-0.1406 0.848-0.1406 0.5 0 0.958 0.125 1.373 0.375 0.414 0.2471 0.747 0.5895 0.997 1.027 0.25 0.4346 0.375 0.9332 0.375 1.4957 0 0.5398-0.121 1.0341-0.363 1.483-0.241 0.446-0.58 0.8011-1.018 1.0653-0.435 0.2614-0.946 0.3892-1.534 0.3835zm0-0.9375c0.358 0 0.679-0.0895 0.963-0.2684 0.287-0.179 0.513-0.4191 0.678-0.7202 0.167-0.3012 0.251-0.6364 0.251-1.0057 0-0.3608-0.081-0.6889-0.243-0.9844-0.159-0.2983-0.379-0.5355-0.66-0.7116-0.279-0.1762-0.597-0.2642-0.955-0.2642-0.27 0-0.521 0.0539-0.754 0.1619-0.233 0.1051-0.438 0.25-0.614 0.4347-0.173 0.1846-0.31 0.3963-0.409 0.6349-0.099 0.2358-0.149 0.4844-0.149 0.7457 0 0.3466 0.081 0.6705 0.243 0.9716 0.165 0.3012 0.389 0.5441 0.673 0.7287 0.287 0.1847 0.612 0.277 0.976 0.277zm4.744 0.8182v-8.7273h5.233v0.9375h-4.176v2.9489h3.784v0.9375h-3.784v3.9034h-1.057zm12.77-8.7273h1.057v5.7784c0 0.5966-0.141 1.1293-0.422 1.598-0.278 0.466-0.672 0.8339-1.18 1.1037-0.509 0.2671-1.105 0.4006-1.79 0.4006s-1.281-0.1335-1.79-0.4006c-0.508-0.2698-0.903-0.6377-1.185-1.1037-0.278-0.4687-0.417-1.0014-0.417-1.598v-5.7784h1.057v5.6932c0 0.4261 0.093 0.8054 0.281 1.1378 0.187 0.3295 0.454 0.5895 0.801 0.7798 0.349 0.1875 0.767 0.2813 1.253 0.2813s0.903-0.0938 1.253-0.2813c0.349-0.1903 0.616-0.4503 0.801-0.7798 0.187-0.3324 0.281-0.7117 0.281-1.1378v-5.6932zm3.44 3.5625v-0.9204h5.25v0.9204h-5.25zm0 2.5228v-0.9205h5.25v0.9205h-5.25zm10.192-6.0853h1.21l2.421 4.0739h0.102l2.421-4.0739h1.21l-3.154 5.1307v3.5966h-1.056v-3.5966l-3.154-5.1307zm9.242 0 2.25 3.6307h0.068l2.25-3.6307h1.245l-2.745 4.3637 2.745 4.3636h-1.245l-2.25-3.5625h-0.068l-2.25 3.5625h-1.244l2.812-4.3636-2.812-4.3637h1.244zm7.188 8.7273v-8.7273h3.051c0.608 0 1.109 0.1051 1.504 0.3154 0.395 0.2074 0.689 0.4872 0.882 0.8395 0.194 0.3494 0.29 0.7372 0.29 1.1633 0 0.375-0.067 0.6847-0.2 0.929-0.131 0.2443-0.304 0.4375-0.52 0.5795-0.213 0.1421-0.445 0.2472-0.695 0.3154v0.0852c0.267 0.017 0.536 0.1108 0.806 0.2812 0.27 0.1705 0.496 0.4148 0.677 0.733 0.182 0.3182 0.273 0.7074 0.273 1.1676 0 0.4375-0.099 0.831-0.298 1.1804s-0.513 0.6264-0.942 0.831c-0.429 0.2045-0.987 0.3068-1.675 0.3068h-3.153zm1.057-0.9375h2.096c0.691 0 1.181-0.1335 1.47-0.4006 0.293-0.2699 0.439-0.5966 0.439-0.9801 0-0.2954-0.075-0.5682-0.225-0.8182-0.151-0.2528-0.365-0.4545-0.644-0.6051-0.278-0.1534-0.608-0.2301-0.989-0.2301h-2.147v3.0341zm0-3.9545h1.96c0.318 0 0.605-0.0625 0.861-0.1875 0.258-0.125 0.463-0.3012 0.613-0.5285 0.154-0.2272 0.231-0.4943 0.231-0.8011 0-0.3835-0.134-0.7088-0.401-0.9758-0.267-0.2699-0.69-0.4049-1.27-0.4049h-1.994v2.8978zm6.611 7.3465v-9h0.972v1.0398h0.119c0.074-0.1136 0.176-0.2585 0.307-0.4346 0.133-0.179 0.324-0.3381 0.571-0.4773 0.25-0.1421 0.588-0.2131 1.014-0.2131 0.551 0 1.037 0.1378 1.458 0.4134 0.42 0.2755 0.748 0.6662 0.984 1.1718 0.236 0.5057 0.354 1.1023 0.354 1.7898 0 0.6932-0.118 1.2941-0.354 1.8026-0.236 0.5057-0.563 0.8977-0.98 1.1761-0.418 0.2756-0.899 0.4134-1.445 0.4134-0.42 0-0.757-0.0696-1.01-0.2088-0.253-0.1421-0.447-0.3026-0.584-0.4816-0.136-0.1818-0.241-0.3324-0.315-0.4517h-0.085v3.4602h-1.006zm0.989-5.7272c0 0.4943 0.072 0.9304 0.217 1.3082 0.145 0.375 0.357 0.669 0.635 0.8821 0.279 0.2102 0.619 0.3154 1.023 0.3154 0.42 0 0.771-0.1108 1.052-0.3324 0.285-0.2245 0.498-0.5256 0.64-0.9034 0.145-0.3807 0.217-0.804 0.217-1.2699 0-0.4603-0.071-0.875-0.213-1.2443-0.139-0.3722-0.351-0.6662-0.635-0.8821-0.281-0.2188-0.635-0.3282-1.061-0.3282-0.409 0-0.753 0.1037-1.031 0.3111-0.279 0.2046-0.489 0.4915-0.631 0.8608-0.142 0.3665-0.213 0.794-0.213 1.2827zm12.373 3.4091c-0.631 0-1.175-0.1392-1.632-0.4176-0.455-0.2813-0.806-0.6733-1.053-1.1762-0.244-0.5057-0.366-1.0937-0.366-1.7642 0-0.6704 0.122-1.2614 0.366-1.7727 0.247-0.5142 0.591-0.9148 1.031-1.2017 0.444-0.2898 0.961-0.4347 1.551-0.4347 0.341 0 0.678 0.0568 1.01 0.1705 0.333 0.1136 0.635 0.2983 0.908 0.554 0.273 0.2528 0.49 0.588 0.652 1.0056s0.243 0.9318 0.243 1.5426v0.4262h-5.045v-0.8693h4.022c0-0.3694-0.074-0.6989-0.221-0.9887-0.145-0.2897-0.353-0.5184-0.623-0.6861-0.267-0.1676-0.582-0.2514-0.946-0.2514-0.4 0-0.747 0.0995-1.039 0.2983-0.29 0.196-0.513 0.4517-0.669 0.7671-0.157 0.3153-0.235 0.6534-0.235 1.0142v0.5795c0 0.4943 0.086 0.9134 0.256 1.2571 0.173 0.3409 0.413 0.6009 0.72 0.7799 0.307 0.1761 0.663 0.2642 1.07 0.2642 0.264 0 0.503-0.037 0.716-0.1108 0.216-0.0767 0.402-0.1904 0.558-0.341 0.156-0.1534 0.277-0.3437 0.362-0.571l0.972 0.2728c-0.103 0.3295-0.274 0.6193-0.516 0.8693-0.241 0.2471-0.54 0.4403-0.895 0.5795-0.355 0.1364-0.754 0.2046-1.197 0.2046zm4.24-0.1364v-6.5455h0.971v1.0228h0.086c0.136-0.3495 0.356-0.6208 0.66-0.8139 0.304-0.1961 0.669-0.2941 1.095-0.2941 0.432 0 0.791 0.098 1.078 0.2941 0.29 0.1931 0.516 0.4644 0.678 0.8139h0.068c0.168-0.3381 0.419-0.6066 0.754-0.8054 0.336-0.2017 0.738-0.3026 1.206-0.3026 0.586 0 1.064 0.1833 1.436 0.5497 0.373 0.3637 0.559 0.9304 0.559 1.7003v4.3807h-1.006v-4.3807c0-0.4829-0.132-0.8281-0.396-1.0355s-0.576-0.3111-0.934-0.3111c-0.46 0-0.816 0.1392-1.069 0.4176-0.253 0.2756-0.379 0.625-0.379 1.0483v4.2614h-1.023v-4.483c0-0.3721-0.121-0.6718-0.362-0.8991-0.242-0.2301-0.553-0.3452-0.934-0.3452-0.261 0-0.505 0.0696-0.733 0.2088-0.224 0.1392-0.406 0.3324-0.545 0.5796-0.136 0.2443-0.205 0.527-0.205 0.848v4.0909h-1.005zm10.566 0v-8.7273h5.233v0.9375h-4.176v2.9489h3.784v0.9375h-3.784v3.9034h-1.057zm9.736 0.1193c-0.642 0-1.189-0.1747-1.641-0.5241-0.451-0.3523-0.796-0.8622-1.035-1.5299-0.239-0.6704-0.358-1.4801-0.358-2.4289 0-0.9432 0.119-1.7486 0.358-2.4162 0.241-0.6705 0.588-1.1818 1.04-1.5341 0.454-0.3551 1-0.5327 1.636-0.5327s1.18 0.1776 1.632 0.5327c0.455 0.3523 0.801 0.8636 1.04 1.5341 0.241 0.6676 0.362 1.473 0.362 2.4162 0 0.9488-0.119 1.7585-0.358 2.4289-0.239 0.6677-0.584 1.1776-1.035 1.5299-0.452 0.3494-0.999 0.5241-1.641 0.5241zm0-0.9375c0.636 0 1.131-0.3068 1.483-0.9204 0.352-0.6137 0.528-1.4887 0.528-2.625 0-0.7557-0.081-1.3992-0.243-1.9304-0.159-0.5313-0.389-0.9361-0.69-1.2145-0.298-0.2784-0.658-0.4176-1.078-0.4176-0.631 0-1.124 0.311-1.479 0.9332-0.355 0.6193-0.532 1.4957-0.532 2.6293 0 0.7556 0.079 1.3977 0.238 1.9261s0.388 0.9304 0.686 1.206c0.301 0.2755 0.664 0.4133 1.087 0.4133zm7.33 0.9546c-0.614 0-1.142-0.1449-1.586-0.4347-0.443-0.2898-0.784-0.6889-1.022-1.1974-0.239-0.5086-0.358-1.0895-0.358-1.7429 0-0.6648 0.122-1.2515 0.366-1.76 0.247-0.5113 0.591-0.9105 1.031-1.1974 0.444-0.2898 0.961-0.4347 1.552-0.4347 0.46 0 0.874 0.0852 1.244 0.2557 0.369 0.1705 0.672 0.4091 0.907 0.7159 0.236 0.3068 0.383 0.6648 0.439 1.0739h-1.005c-0.077-0.2983-0.247-0.5625-0.512-0.7926-0.261-0.233-0.613-0.3495-1.056-0.3495-0.392 0-0.736 0.1023-1.032 0.3068-0.292 0.2017-0.521 0.4873-0.686 0.8566-0.162 0.3665-0.243 0.7969-0.243 1.2912 0 0.5057 0.08 0.946 0.239 1.321 0.162 0.375 0.389 0.6662 0.682 0.8736 0.295 0.2074 0.642 0.3111 1.04 0.3111 0.261 0 0.498-0.0455 0.711-0.1364s0.394-0.2216 0.541-0.3921c0.148-0.1704 0.253-0.375 0.316-0.6136h1.005c-0.056 0.3864-0.197 0.7344-0.421 1.044-0.222 0.3069-0.516 0.5512-0.883 0.733-0.363 0.179-0.786 0.2685-1.269 0.2685zm4.044-0.1364v-6.5455h0.971v1.0228h0.085c0.137-0.3495 0.357-0.6208 0.661-0.8139 0.304-0.1961 0.669-0.2941 1.095-0.2941 0.432 0 0.791 0.098 1.078 0.2941 0.29 0.1931 0.516 0.4644 0.678 0.8139h0.068c0.168-0.3381 0.419-0.6066 0.754-0.8054 0.335-0.2017 0.737-0.3026 1.206-0.3026 0.585 0 1.064 0.1833 1.436 0.5497 0.372 0.3637 0.558 0.9304 0.558 1.7003v4.3807h-1.005v-4.3807c0-0.4829-0.132-0.8281-0.396-1.0355-0.265-0.2074-0.576-0.3111-0.934-0.3111-0.46 0-0.816 0.1392-1.069 0.4176-0.253 0.2756-0.38 0.625-0.38 1.0483v4.2614h-1.022v-4.483c0-0.3721-0.121-0.6718-0.363-0.8991-0.241-0.2301-0.552-0.3452-0.933-0.3452-0.261 0-0.505 0.0696-0.733 0.2088-0.224 0.1392-0.406 0.3324-0.545 0.5796-0.137 0.2443-0.205 0.527-0.205 0.848v4.0909h-1.005zm11.435-8.7273v8.7273h-1.006v-8.7273h1.006zm4.671 8.8466c-0.642 0-1.188-0.1747-1.64-0.5241-0.452-0.3523-0.797-0.8622-1.036-1.5299-0.238-0.6704-0.358-1.4801-0.358-2.4289 0-0.9432 0.12-1.7486 0.358-2.4162 0.242-0.6705 0.588-1.1818 1.04-1.5341 0.455-0.3551 1-0.5327 1.636-0.5327 0.637 0 1.181 0.1776 1.633 0.5327 0.454 0.3523 0.801 0.8636 1.039 1.5341 0.242 0.6676 0.363 1.473 0.363 2.4162 0 0.9488-0.12 1.7585-0.358 2.4289-0.239 0.6677-0.584 1.1776-1.036 1.5299-0.452 0.3494-0.998 0.5241-1.641 0.5241zm0-0.9375c0.637 0 1.131-0.3068 1.483-0.9204 0.353-0.6137 0.529-1.4887 0.529-2.625 0-0.7557-0.081-1.3992-0.243-1.9304-0.159-0.5313-0.389-0.9361-0.69-1.2145-0.299-0.2784-0.658-0.4176-1.079-0.4176-0.63 0-1.123 0.311-1.478 0.9332-0.355 0.6193-0.533 1.4957-0.533 2.6293 0 0.7556 0.08 1.3977 0.239 1.9261s0.388 0.9304 0.686 1.206c0.301 0.2755 0.663 0.4133 1.086 0.4133z" fill="#FBF1C7"/>
  <path d="m479.81 69.568c-0.211 0-0.391-0.0753-0.542-0.2259-0.15-0.1505-0.225-0.3309-0.225-0.5412 0-0.2102 0.075-0.3906 0.225-0.5412 0.151-0.1505 0.331-0.2258 0.542-0.2258 0.21 0 0.39 0.0753 0.541 0.2258 0.15 0.1506 0.226 0.331 0.226 0.5412 0 0.1392-0.036 0.2671-0.107 0.3836-0.068 0.1164-0.16 0.2102-0.277 0.2812-0.114 0.0682-0.241 0.1023-0.383 0.1023zm0-4.858c-0.211 0-0.391-0.0753-0.542-0.2258-0.15-0.1506-0.225-0.331-0.225-0.5412s0.075-0.3906 0.225-0.5412c0.151-0.1506 0.331-0.2259 0.542-0.2259 0.21 0 0.39 0.0753 0.541 0.2259 0.15 0.1506 0.226 0.331 0.226 0.5412 0 0.1392-0.036 0.267-0.107 0.3835-0.068 0.1165-0.16 0.2102-0.277 0.2813-0.114 0.0681-0.241 0.1022-0.383 0.1022zm100.1 4.858c-0.21 0-0.39-0.0753-0.541-0.2259-0.151-0.1505-0.226-0.3309-0.226-0.5412 0-0.2102 0.075-0.3906 0.226-0.5412 0.151-0.1505 0.331-0.2258 0.541-0.2258s0.391 0.0753 0.541 0.2258c0.151 0.1506 0.226 0.331 0.226 0.5412 0 0.1392-0.035 0.2671-0.106 0.3836-0.069 0.1164-0.161 0.2102-0.277 0.2812-0.114 0.0682-0.242 0.1023-0.384 0.1023zm0-4.858c-0.21 0-0.39-0.0753-0.541-0.2258-0.151-0.1506-0.226-0.331-0.226-0.5412s0.075-0.3906 0.226-0.5412 0.331-0.2259 0.541-0.2259 0.391 0.0753 0.541 0.2259c0.151 0.1506 0.226 0.331 0.226 0.5412 0 0.1392-0.035 0.267-0.106 0.3835-0.069 0.1165-0.161 0.2102-0.277 0.2813-0.114 0.0681-0.242 0.1022-0.384 0.1022zm34.102 4.858c-0.211 0-0.391-0.0753-0.542-0.2259-0.15-0.1505-0.225-0.3309-0.225-0.5412 0-0.2102 0.075-0.3906 0.225-0.5412 0.151-0.1505 0.331-0.2258 0.542-0.2258 0.21 0 0.39 0.0753 0.541 0.2258 0.15 0.1506 0.226 0.331 0.226 0.5412 0 0.1392-0.036 0.2671-0.107 0.3836-0.068 0.1164-0.16 0.2102-0.277 0.2812-0.113 0.0682-0.241 0.1023-0.383 0.1023zm0-4.858c-0.211 0-0.391-0.0753-0.542-0.2258-0.15-0.1506-0.225-0.331-0.225-0.5412s0.075-0.3906 0.225-0.5412c0.151-0.1506 0.331-0.2259 0.542-0.2259 0.21 0 0.39 0.0753 0.541 0.2259 0.15 0.1506 0.226 0.331 0.226 0.5412 0 0.1392-0.036 0.267-0.107 0.3835-0.068 0.1165-0.16 0.2102-0.277 0.2813-0.113 0.0681-0.241 0.1022-0.383 0.1022z" fill="#B8BB26"/>
 </g>
 <line x1="42.293" x2="1.2929" y1="57.707" y2="16.707" stroke="#FBF1C7" stroke-width="2"/>
 <line x1="477.29" x2="437.29" y1="57.707" y2="17.707" stroke="#FBF1C7" stroke-width="2"/>
 <line x1="579.29" x2="539.29" y1="57.707" y2="17.707" stroke="#FBF1C7" stroke-width="2"/>
 <line x1="612.29" x2="572.29" y1="57.707" y2="17.707" stroke="#FBF1C7" stroke-width="2"/>
 <line x1="198" x2="2" y1="17" y2="17" stroke="#FBF1C7" stroke-width="2"/>
 <path d="m10.472 10.994-0.1193 3.0682h-1.0909v-2.0625h-0.61363v-1.0057h1.8239zm-7.4148 1.0057v-8.7273h1.0057v7.7557h4.5v-7.7557h1.0057v8.7273h-6.5114zm9.8811-1.483 3.1534-5.0624h1.1591v6.5454h-1.0057v-5.0625l-3.1364 5.0625h-1.1761v-6.5454h1.0057v5.0624zm8.8135 3.716v-10.96h1.0057v10.96h-1.0057zm0-2.0966c-0.4432 0-0.8466-0.0796-1.2102-0.2387-0.3636-0.1619-0.6761-0.3906-0.9375-0.6861-0.2614-0.2982-0.4631-0.6548-0.6051-1.0696-0.1421-0.41473-0.2131-0.87495-0.2131-1.3806 0-0.51136 0.071-0.97443 0.2131-1.3892 0.142-0.41761 0.3437-0.77557 0.6051-1.0739 0.2614-0.2983 0.5739-0.52699 0.9375-0.68608 0.3636-0.16194 0.767-0.2429 1.2102-0.2429h0.3068v6.7671h-0.3068zm0-0.9034h0.1705v-4.9603h-0.1705c-0.3352 0-0.6264 0.06818-0.8736 0.20454-0.2471 0.13353-0.4517 0.31676-0.6136 0.54972-0.1591 0.23011-0.2784 0.49432-0.358 0.79261-0.0767 0.2983-0.115 0.61222-0.115 0.94176 0 0.4375 0.0696 0.84375 0.2088 1.2188 0.1392 0.37499 0.3537 0.67759 0.6435 0.90769 0.2897 0.2301 0.6591 0.3452 1.1079 0.3452zm1.0057 0.9034h-0.3068v-6.7671h0.3068c0.4432 0 0.8466 0.08096 1.2102 0.2429 0.3637 0.15909 0.6762 0.38778 0.9375 0.68608 0.2614 0.29829 0.4631 0.65625 0.6051 1.0739 0.1421 0.41477 0.2131 0.87784 0.2131 1.3892 0 0.50569-0.071 0.96591-0.2131 1.3806-0.142 0.4148-0.3437 0.7714-0.6051 1.0696-0.2613 0.2955-0.5738 0.5242-0.9375 0.6861-0.3636 0.1591-0.767 0.2387-1.2102 0.2387zm0-0.9034c0.3381 0 0.6293-0.0654 0.8736-0.1961 0.2471-0.1335 0.4503-0.3153 0.6094-0.5454 0.1619-0.233 0.2812-0.49718 0.3579-0.79264 0.0796-0.29829 0.1193-0.61079 0.1193-0.9375 0-0.4375-0.0696-0.84517-0.2088-1.223s-0.3537-0.68324-0.6434-0.91619c-0.2898-0.23296-0.6591-0.34943-1.108-0.34943h-0.1705v4.9603h0.1705zm4.5032 3.2215v-9h0.9716v1.0398h0.1193c0.0739-0.11364 0.1761-0.25852 0.3068-0.43466 0.1335-0.17898 0.3239-0.33807 0.571-0.47727 0.25-0.14205 0.5881-0.21307 1.0143-0.21307 0.5511 0 1.0369 0.13778 1.4573 0.41335 0.4205 0.27557 0.7486 0.66619 0.9844 1.1719 0.2358 0.50568 0.3537 1.1023 0.3537 1.7898 0 0.69318-0.1179 1.2941-0.3537 1.8026-0.2358 0.5057-0.5625 0.8977-0.9801 1.1761-0.4176 0.2756-0.8991 0.4134-1.4446 0.4134-0.4205 0-0.7571-0.0696-1.0099-0.2088-0.2529-0.1421-0.4475-0.3026-0.5839-0.4816-0.1363-0.1818-0.2414-0.3324-0.3153-0.4517h-0.0852v3.4602h-1.0057zm0.9886-5.7272c0 0.49432 0.0725 0.9304 0.2174 1.3082 0.1449 0.375 0.3565 0.669 0.6349 0.8821 0.2784 0.2102 0.6193 0.3154 1.0227 0.3154 0.4205 0 0.7713-0.1108 1.0526-0.3324 0.2841-0.2245 0.4972-0.5256 0.6392-0.90344 0.1449-0.38068 0.2173-0.80398 0.2173-1.2699 0-0.46022-0.071-0.875-0.213-1.2443-0.1392-0.37215-0.3509-0.66619-0.635-0.8821-0.2812-0.21875-0.6349-0.32812-1.0611-0.32812-0.4091 0-0.7528 0.10369-1.0312 0.31108-0.2784 0.20454-0.4887 0.49147-0.6307 0.86079-0.142 0.36648-0.2131 0.79404-0.2131 1.2827zm8.983 3.4091c-0.5909 0-1.1094-0.1407-1.5554-0.4219-0.4432-0.2813-0.7898-0.6747-1.0398-1.1804-0.2471-0.5057-0.3707-1.0966-0.3707-1.7727 0-0.68181 0.1236-1.277 0.3707-1.7855 0.25-0.50852 0.5966-0.90341 1.0398-1.1847 0.446-0.28125 0.9645-0.42187 1.5554-0.42187s1.1079 0.14062 1.5511 0.42187c0.446 0.28125 0.7926 0.67614 1.0398 1.1847 0.25 0.50852 0.375 1.1037 0.375 1.7855 0 0.67614-0.125 1.267-0.375 1.7727-0.2472 0.5057-0.5938 0.8991-1.0398 1.1804-0.4432 0.2812-0.9602 0.4219-1.5511 0.4219zm0-0.9034c0.4489 0 0.8182-0.1151 1.1079-0.3452 0.2898-0.2301 0.5043-0.5327 0.6435-0.90769 0.1392-0.375 0.2088-0.78125 0.2088-1.2188s-0.0696-0.84517-0.2088-1.223-0.3537-0.68324-0.6435-0.91619c-0.2897-0.23296-0.659-0.34943-1.1079-0.34943s-0.8182 0.11647-1.108 0.34943c-0.2897 0.23295-0.5042 0.53835-0.6434 0.91619s-0.2088 0.78551-0.2088 1.223 0.0696 0.84375 0.2088 1.2188c0.1392 0.37499 0.3537 0.67759 0.6434 0.90769 0.2898 0.2301 0.6591 0.3452 1.108 0.3452zm4.5011 0.767v-6.5454h2.6761c0.7045 0 1.2642 0.15909 1.679 0.47727 0.4147 0.31818 0.6221 0.73863 0.6221 1.2614 0 0.39773-0.1179 0.70597-0.3537 0.92472-0.2358 0.21591-0.5383 0.36221-0.9076 0.43892 0.2414 0.03409 0.4758 0.11932 0.7031 0.25568 0.2301 0.13636 0.4204 0.32386 0.571 0.5625 0.1506 0.2358 0.2259 0.52557 0.2259 0.8693 0 0.3352-0.0853 0.635-0.2557 0.8992-0.1705 0.2642-0.4148 0.473-0.733 0.6264s-0.6988 0.2301-1.142 0.2301h-3.0852zm0.9545-0.9205h2.1307c0.3466 0 0.6179-0.0823 0.8139-0.2471s0.294-0.3892 0.294-0.6733c0-0.33808-0.098-0.6037-0.294-0.79688-0.196-0.19603-0.4673-0.29404-0.8139-0.29404h-2.1307v2.0113zm0-2.8806h1.7216c0.2699 0 0.5014-0.03693 0.6946-0.11079 0.1932-0.07671 0.3409-0.18466 0.4432-0.32387 0.1051-0.14204 0.1576-0.30965 0.1576-0.50284 0-0.27556-0.115-0.49147-0.3451-0.64772-0.2301-0.15909-0.5469-0.23864-0.9503-0.23864h-1.7216v1.8239zm7.7099 3.9545c-0.4148 0-0.7912-0.0781-1.1293-0.2344-0.3381-0.1591-0.6065-0.3878-0.8054-0.686-0.1989-0.3012-0.2983-0.6648-0.2983-1.091 0-0.37495 0.0739-0.67893 0.2216-0.91189 0.1477-0.23579 0.3452-0.42045 0.5923-0.55397 0.2472-0.13353 0.5199-0.23296 0.8182-0.2983 0.3012-0.06818 0.6037-0.12216 0.9077-0.16193 0.3977-0.05114 0.7202-0.08949 0.9673-0.11506 0.25-0.02841 0.4318-0.07528 0.5455-0.14062 0.1165-0.06534 0.1747-0.17898 0.1747-0.34091v-0.03409c0-0.42046-0.1151-0.74716-0.3452-0.98012-0.2273-0.23295-0.5724-0.34943-1.0355-0.34943-0.4801 0-0.8565 0.10512-1.1293 0.31534-0.2727 0.21023-0.4644 0.43466-0.5752 0.6733l-0.9546-0.34091c0.1705-0.39773 0.3977-0.70739 0.6818-0.92898 0.287-0.22443 0.5995-0.38068 0.9375-0.46875 0.3409-0.09091 0.6762-0.13636 1.0057-0.13636 0.2102 0 0.4517 0.02557 0.7244 0.0767 0.2756 0.0483 0.5412 0.14915 0.7969 0.30256 0.2585 0.15341 0.473 0.38494 0.6435 0.6946 0.1704 0.30966 0.2557 0.72443 0.2557 1.2443v4.3125h-1.0057v-0.8864h-0.0511c-0.0682 0.1421-0.1819 0.2941-0.341 0.456-0.159 0.1619-0.3707 0.2997-0.6349 0.4134-0.2642 0.1136-0.5866 0.1704-0.9673 0.1704zm0.1534-0.9034c0.3977 0 0.7329-0.0781 1.0057-0.2344 0.2755-0.1562 0.4829-0.3579 0.6221-0.6051 0.1421-0.2471 0.2131-0.50709 0.2131-0.77982v-0.92045c-0.0426 0.05113-0.1364 0.09801-0.2813 0.14062-0.142 0.03977-0.3068 0.07529-0.4943 0.10654-0.1846 0.02841-0.365 0.05397-0.5412 0.0767-0.1733 0.01989-0.3139 0.03693-0.4218 0.05114-0.2614 0.03409-0.5057 0.08949-0.733 0.16619-0.2244 0.07386-0.4063 0.18608-0.5455 0.33665-0.1363 0.14773-0.2045 0.34943-0.2045 0.60513 0 0.3494 0.1293 0.6136 0.3878 0.7926 0.2613 0.1761 0.5923 0.2642 0.9929 0.2642zm8.6197 0.75v-5.625h-1.7387c-0.392 0-0.7003 0.09091-0.9247 0.27273s-0.3366 0.43182-0.3366 0.75c0 0.3125 0.1008 0.55824 0.3025 0.73721 0.2046 0.17898 0.4844 0.26847 0.8395 0.26847h2.1136v0.9375h-2.1136c-0.4432 0-0.8253-0.07813-1.1463-0.23438s-0.5682-0.37926-0.7415-0.66903c-0.1733-0.29261-0.2599-0.6392-0.2599-1.0398 0-0.40341 0.0909-0.75 0.2727-1.0398 0.1818-0.28977 0.4418-0.51278 0.7798-0.66903 0.3409-0.15625 0.7458-0.23437 1.2145-0.23437h2.6932v6.5454h-0.9545zm-4.3637 0 1.858-3.2557h1.0909l-1.858 3.2557h-1.0909zm10.539 0v-6.5454h5.1478v6.5454h-1.0057v-5.608h-3.1364v5.608h-1.0057zm9.6435 0.1364c-0.5909 0-1.1094-0.1407-1.5554-0.4219-0.4432-0.2813-0.7898-0.6747-1.0398-1.1804-0.2471-0.5057-0.3707-1.0966-0.3707-1.7727 0-0.68181 0.1236-1.277 0.3707-1.7855 0.25-0.50852 0.5966-0.90341 1.0398-1.1847 0.446-0.28125 0.9645-0.42187 1.5554-0.42187s1.108 0.14062 1.5511 0.42187c0.4461 0.28125 0.7927 0.67614 1.0398 1.1847 0.25 0.50852 0.375 1.1037 0.375 1.7855 0 0.67614-0.125 1.267-0.375 1.7727-0.2471 0.5057-0.5937 0.8991-1.0398 1.1804-0.4431 0.2812-0.9602 0.4219-1.5511 0.4219zm0-0.9034c0.4489 0 0.8182-0.1151 1.108-0.3452 0.2897-0.2301 0.5042-0.5327 0.6434-0.90769 0.1392-0.375 0.2088-0.78125 0.2088-1.2188s-0.0696-0.84517-0.2088-1.223-0.3537-0.68324-0.6434-0.91619c-0.2898-0.23296-0.6591-0.34943-1.108-0.34943s-0.8182 0.11647-1.108 0.34943c-0.2897 0.23295-0.5042 0.53835-0.6434 0.91619s-0.2088 0.78551-0.2088 1.223 0.0696 0.84375 0.2088 1.2188c0.1392 0.37499 0.3537 0.67759 0.6434 0.90769 0.2898 0.2301 0.6591 0.3452 1.108 0.3452zm3.8022 2.642v-2.8125h0.5455c0.1335-0.1392 0.2485-0.2898 0.3451-0.4517s0.1804-0.3537 0.2514-0.5753c0.0739-0.22442 0.1364-0.49715 0.1875-0.81817 0.0512-0.32386 0.0966-0.71449 0.1364-1.1719l0.2216-2.5909h4.1591v5.608h1.0057v2.8125h-1.0057v-1.875h-4.8409v1.875h-1.0057zm1.6875-2.8125h3.1534v-4.6704h-2.2159l-0.1705 1.6534c-0.071 0.68466-0.159 1.2827-0.2642 1.794-0.1051 0.51141-0.2727 0.91901-0.5028 1.223zm6.4996 0.9375v-6.5454h5.1478v6.5454h-1.0057v-5.608h-3.1364v5.608h-1.0057zm7.9901-1.483 3.1534-5.0624h1.1591v6.5454h-1.0057v-5.0625l-3.1363 5.0625h-1.1762v-6.5454h1.0057v5.0624zm8.8139 1.6194c-0.614 0-1.142-0.1449-1.586-0.4347-0.443-0.2898-0.784-0.6889-1.022-1.1974-0.239-0.50856-0.358-1.0895-0.358-1.7429 0-0.66477 0.122-1.2514 0.366-1.7599 0.247-0.51136 0.591-0.91051 1.031-1.1974 0.444-0.28978 0.961-0.43466 1.552-0.43466 0.46 0 0.875 0.08523 1.244 0.25568s0.672 0.40909 0.908 0.71591c0.235 0.30682 0.382 0.66477 0.439 1.0739h-1.006c-0.077-0.29829-0.247-0.5625-0.512-0.79261-0.261-0.23296-0.613-0.34943-1.056-0.34943-0.392 0-0.736 0.10227-1.032 0.30682-0.292 0.2017-0.521 0.48721-0.686 0.85653-0.162 0.36648-0.243 0.79687-0.243 1.2912 0 0.50568 0.08 0.94603 0.239 1.321 0.162 0.375 0.389 0.6662 0.682 0.8736 0.295 0.2074 0.642 0.3111 1.04 0.3111 0.261 0 0.498-0.0455 0.711-0.1364s0.394-0.2216 0.542-0.3921c0.147-0.1704 0.252-0.375 0.315-0.6136h1.006c-0.057 0.3864-0.198 0.7344-0.422 1.044-0.222 0.3069-0.516 0.5512-0.882 0.733-0.364 0.179-0.787 0.2685-1.27 0.2685zm4.913-4.3125h1.875c0.767 0 1.354 0.19461 1.76 0.58381s0.609 0.8821 0.609 1.4787c0 0.39204-0.091 0.74854-0.272 1.0696-0.182 0.3181-0.449 0.5724-0.802 0.7628-0.352 0.1874-0.784 0.2812-1.295 0.2812h-2.744v-6.5454h1.005v5.608h1.739c0.398 0 0.724-0.1051 0.98-0.3153 0.256-0.2103 0.384-0.4802 0.384-0.8097 0-0.34659-0.128-0.62926-0.384-0.84801s-0.582-0.32813-0.98-0.32813h-1.875v-0.9375zm8.775-1.4318v-0.9375h5.318v0.9375h-2.147v5.608h-1.006v-5.608h-2.165zm9.105 5.7444c-0.591 0-1.11-0.1407-1.556-0.4219-0.443-0.2813-0.79-0.6747-1.04-1.1804-0.247-0.5057-0.37-1.0966-0.37-1.7727 0-0.68181 0.123-1.277 0.37-1.7855 0.25-0.50852 0.597-0.90341 1.04-1.1847 0.446-0.28125 0.965-0.42187 1.556-0.42187s1.108 0.14062 1.551 0.42187c0.446 0.28125 0.792 0.67614 1.04 1.1847 0.25 0.50852 0.375 1.1037 0.375 1.7855 0 0.67614-0.125 1.267-0.375 1.7727-0.248 0.5057-0.594 0.8991-1.04 1.1804-0.443 0.2812-0.96 0.4219-1.551 0.4219zm0-0.9034c0.449 0 0.818-0.1151 1.108-0.3452 0.289-0.2301 0.504-0.5327 0.643-0.90769 0.139-0.375 0.209-0.78125 0.209-1.2188s-0.07-0.84517-0.209-1.223-0.354-0.68324-0.643-0.91619c-0.29-0.23296-0.659-0.34943-1.108-0.34943s-0.819 0.11647-1.108 0.34943c-0.29 0.23295-0.505 0.53835-0.644 0.91619s-0.209 0.78551-0.209 1.223 0.07 0.84375 0.209 1.2188c0.139 0.37499 0.354 0.67759 0.644 0.90769 0.289 0.2301 0.659 0.3452 1.108 0.3452zm4.501 0.767v-6.5454h1.005v2.8466h0.665l2.352-2.8466h1.296l-2.642 3.1534 2.676 3.392h-1.295l-2.148-2.7614h-0.904v2.7614h-1.005zm8.92 0.1364c-0.631 0-1.175-0.1392-1.632-0.4176-0.455-0.2813-0.806-0.6733-1.053-1.1762-0.244-0.5057-0.366-1.0937-0.366-1.7642 0-0.67046 0.122-1.2614 0.366-1.7727 0.247-0.5142 0.591-0.91477 1.031-1.2017 0.444-0.28978 0.961-0.43466 1.552-0.43466 0.34 0 0.677 0.05682 1.009 0.17045 0.333 0.11364 0.635 0.2983 0.908 0.55398 0.273 0.25284 0.49 0.58807 0.652 1.0057 0.162 0.41762 0.243 0.93182 0.243 1.5426v0.42613h-5.045v-0.86932h4.022c0-0.36931-0.074-0.69886-0.221-0.98863-0.145-0.28978-0.353-0.51847-0.622-0.68608-0.267-0.16762-0.583-0.25142-0.946-0.25142-0.401 0-0.748 0.09943-1.04 0.29829-0.29 0.19603-0.513 0.45171-0.669 0.76705-0.157 0.31534-0.235 0.65341-0.235 1.0142v0.57955c0 0.49432 0.086 0.91335 0.256 1.2571 0.173 0.3409 0.413 0.6009 0.72 0.7799 0.307 0.1761 0.664 0.2642 1.07 0.2642 0.264 0 0.503-0.037 0.716-0.1108 0.216-0.0767 0.402-0.1904 0.558-0.341 0.156-0.1534 0.277-0.3437 0.362-0.571l0.972 0.2728c-0.103 0.3295-0.274 0.6193-0.516 0.8693-0.241 0.2471-0.54 0.4403-0.895 0.5795-0.355 0.1364-0.754 0.2046-1.197 0.2046zm8.621-3.8694v0.9375h-3.614v-0.9375h3.614zm-3.375-2.8125v6.5454h-1.006v-6.5454h1.006zm4.142 0v6.5454h-1.006v-6.5454h1.006zm3.762 6.6988c-0.414 0-0.791-0.0781-1.129-0.2344-0.338-0.1591-0.606-0.3878-0.805-0.686-0.199-0.3012-0.299-0.6648-0.299-1.091 0-0.37495 0.074-0.67893 0.222-0.91189 0.148-0.23579 0.345-0.42045 0.592-0.55397 0.247-0.13353 0.52-0.23296 0.819-0.2983 0.301-0.06818 0.603-0.12216 0.907-0.16193 0.398-0.05114 0.72-0.08949 0.968-0.11506 0.25-0.02841 0.431-0.07528 0.545-0.14062 0.116-0.06534 0.175-0.17898 0.175-0.34091v-0.03409c0-0.42046-0.115-0.74716-0.345-0.98012-0.228-0.23295-0.573-0.34943-1.036-0.34943-0.48 0-0.857 0.10512-1.129 0.31534-0.273 0.21023-0.465 0.43466-0.576 0.6733l-0.954-0.34091c0.17-0.39773 0.398-0.70739 0.682-0.92898 0.287-0.22443 0.599-0.38068 0.937-0.46875 0.341-0.09091 0.676-0.13636 1.006-0.13636 0.21 0 0.452 0.02557 0.724 0.0767 0.276 0.0483 0.542 0.14915 0.797 0.30256 0.259 0.15341 0.473 0.38494 0.644 0.6946 0.17 0.30966 0.255 0.72443 0.255 1.2443v4.3125h-1.005v-0.8864h-0.051c-0.069 0.1421-0.182 0.2941-0.341 0.456s-0.371 0.2997-0.635 0.4134c-0.265 0.1136-0.587 0.1704-0.968 0.1704zm0.154-0.9034c0.398 0 0.733-0.0781 1.005-0.2344 0.276-0.1562 0.483-0.3579 0.623-0.6051 0.142-0.2471 0.213-0.50709 0.213-0.77982v-0.92045c-0.043 0.05113-0.137 0.09801-0.282 0.14062-0.142 0.03977-0.306 0.07529-0.494 0.10654-0.185 0.02841-0.365 0.05397-0.541 0.0767-0.173 0.01989-0.314 0.03693-0.422 0.05114-0.261 0.03409-0.506 0.08949-0.733 0.16619-0.224 0.07386-0.406 0.18608-0.545 0.33665-0.137 0.14773-0.205 0.34943-0.205 0.60513 0 0.3494 0.129 0.6136 0.388 0.7926 0.261 0.1761 0.592 0.2642 0.993 0.2642z" fill="#FBF1C7"/>
 <path d="m277.31 14.114v-3.0511h0.562c0.194-0.1761 0.375-0.4247 0.546-0.7457 0.173-0.3239 0.319-0.75572 0.439-1.2955 0.122-0.54262 0.203-1.2315 0.243-2.0668l0.187-3.6818h5.182v7.7898h1.006v3.0341h-1.006v-2.0966h-6.154v2.1136h-1.005zm1.824-3.0511h4.329v-6.8523h-3.221l-0.137 2.7443c-0.034 0.63636-0.093 1.2131-0.179 1.7301-0.085 0.5142-0.194 0.97017-0.328 1.3679-0.133 0.3948-0.288 0.7315-0.464 1.0099zm9.727 1.0909c-0.414 0-0.791-0.0781-1.129-0.2344-0.338-0.1591-0.606-0.3878-0.805-0.686-0.199-0.3012-0.299-0.6648-0.299-1.091 0-0.37495 0.074-0.67893 0.222-0.91189 0.148-0.23579 0.345-0.42045 0.592-0.55397 0.247-0.13353 0.52-0.23296 0.818-0.2983 0.302-0.06818 0.604-0.12216 0.908-0.16193 0.398-0.05114 0.72-0.08949 0.967-0.11506 0.25-0.02841 0.432-0.07528 0.546-0.14062 0.116-0.06534 0.175-0.17898 0.175-0.34091v-0.03409c0-0.42046-0.115-0.74716-0.346-0.98012-0.227-0.23295-0.572-0.34943-1.035-0.34943-0.48 0-0.857 0.10512-1.129 0.31534-0.273 0.21023-0.465 0.43466-0.576 0.6733l-0.954-0.34091c0.17-0.39773 0.398-0.70739 0.682-0.92898 0.287-0.22443 0.599-0.38068 0.937-0.46875 0.341-0.09091 0.676-0.13636 1.006-0.13636 0.21 0 0.452 0.02557 0.724 0.0767 0.276 0.0483 0.541 0.14915 0.797 0.30256 0.259 0.15341 0.473 0.38494 0.644 0.6946 0.17 0.30966 0.255 0.72443 0.255 1.2443v4.3125h-1.005v-0.8864h-0.052c-0.068 0.1421-0.181 0.2941-0.34 0.456-0.16 0.1619-0.371 0.2997-0.635 0.4134-0.265 0.1136-0.587 0.1704-0.968 0.1704zm0.154-0.9034c0.397 0 0.733-0.0781 1.005-0.2344 0.276-0.1562 0.483-0.3579 0.623-0.6051 0.142-0.2471 0.213-0.50709 0.213-0.77982v-0.92045c-0.043 0.05113-0.137 0.09801-0.282 0.14062-0.142 0.03977-0.306 0.07529-0.494 0.10654-0.185 0.02841-0.365 0.05397-0.541 0.0767-0.173 0.01989-0.314 0.03693-0.422 0.05114-0.261 0.03409-0.506 0.08949-0.733 0.16619-0.224 0.07386-0.406 0.18608-0.545 0.33665-0.137 0.14773-0.205 0.34943-0.205 0.60513 0 0.3494 0.129 0.6136 0.388 0.7926 0.261 0.1761 0.592 0.2642 0.993 0.2642zm3.791-4.858v-0.9375h5.318v0.9375h-2.147v5.608h-1.006v-5.608h-2.165zm8.372 5.7614c-0.415 0-0.791-0.0781-1.13-0.2344-0.338-0.1591-0.606-0.3878-0.805-0.686-0.199-0.3012-0.298-0.6648-0.298-1.091 0-0.37495 0.074-0.67893 0.221-0.91189 0.148-0.23579 0.346-0.42045 0.593-0.55397 0.247-0.13353 0.52-0.23296 0.818-0.2983 0.301-0.06818 0.604-0.12216 0.908-0.16193 0.397-0.05114 0.72-0.08949 0.967-0.11506 0.25-0.02841 0.432-0.07528 0.545-0.14062 0.117-0.06534 0.175-0.17898 0.175-0.34091v-0.03409c0-0.42046-0.115-0.74716-0.345-0.98012-0.227-0.23295-0.573-0.34943-1.036-0.34943-0.48 0-0.856 0.10512-1.129 0.31534-0.273 0.21023-0.464 0.43466-0.575 0.6733l-0.955-0.34091c0.171-0.39773 0.398-0.70739 0.682-0.92898 0.287-0.22443 0.6-0.38068 0.938-0.46875 0.34-0.09091 0.676-0.13636 1.005-0.13636 0.21 0 0.452 0.02557 0.725 0.0767 0.275 0.0483 0.541 0.14915 0.797 0.30256 0.258 0.15341 0.473 0.38494 0.643 0.6946s0.256 0.72443 0.256 1.2443v4.3125h-1.006v-0.8864h-0.051c-0.068 0.1421-0.182 0.2941-0.341 0.456s-0.371 0.2997-0.635 0.4134c-0.264 0.1136-0.587 0.1704-0.967 0.1704zm0.153-0.9034c0.398 0 0.733-0.0781 1.006-0.2344 0.275-0.1562 0.483-0.3579 0.622-0.6051 0.142-0.2471 0.213-0.50709 0.213-0.77982v-0.92045c-0.043 0.05113-0.136 0.09801-0.281 0.14062-0.142 0.03977-0.307 0.07529-0.495 0.10654-0.184 0.02841-0.365 0.05397-0.541 0.0767-0.173 0.01989-0.314 0.03693-0.422 0.05114-0.261 0.03409-0.505 0.08949-0.733 0.16619-0.224 0.07386-0.406 0.18608-0.545 0.33665-0.136 0.14773-0.205 0.34943-0.205 0.60513 0 0.3494 0.13 0.6136 0.388 0.7926 0.262 0.1761 0.593 0.2642 0.993 0.2642zm9.063-0.733 3.153-5.0624h1.159v6.5454h-1.005v-5.0625l-3.137 5.0625h-1.176v-6.5454h1.006v5.0624zm9.529 1.483v-6.5454h2.677c0.704 0 1.264 0.15909 1.679 0.47727 0.414 0.31818 0.622 0.73863 0.622 1.2614 0 0.39773-0.118 0.70597-0.354 0.92472-0.236 0.21591-0.538 0.36221-0.908 0.43892 0.242 0.03409 0.476 0.11932 0.703 0.25568 0.231 0.13636 0.421 0.32386 0.572 0.5625 0.15 0.2358 0.225 0.52557 0.225 0.8693 0 0.3352-0.085 0.635-0.255 0.8992-0.171 0.2642-0.415 0.473-0.733 0.6264s-0.699 0.2301-1.142 0.2301h-3.086zm0.955-0.9205h2.131c0.346 0 0.618-0.0823 0.814-0.2471s0.294-0.3892 0.294-0.6733c0-0.33808-0.098-0.6037-0.294-0.79688-0.196-0.19603-0.468-0.29404-0.814-0.29404h-2.131v2.0113zm0-2.8806h1.722c0.269 0 0.501-0.03693 0.694-0.11079 0.193-0.07671 0.341-0.18466 0.443-0.32387 0.105-0.14204 0.158-0.30965 0.158-0.50284 0-0.27556-0.115-0.49147-0.345-0.64772-0.23-0.15909-0.547-0.23864-0.95-0.23864h-1.722v1.8239zm5.784 6.2556v-9h0.971v1.0398h0.12c0.074-0.11364 0.176-0.25852 0.306-0.43466 0.134-0.17898 0.324-0.33807 0.571-0.47727 0.25-0.14205 0.589-0.21307 1.015-0.21307 0.551 0 1.037 0.13778 1.457 0.41335 0.421 0.27557 0.749 0.66619 0.984 1.1719 0.236 0.50568 0.354 1.1023 0.354 1.7898 0 0.69318-0.118 1.2941-0.354 1.8026-0.235 0.5057-0.562 0.8977-0.98 1.1761-0.417 0.2756-0.899 0.4134-1.444 0.4134-0.421 0-0.757-0.0696-1.01-0.2088-0.253-0.1421-0.448-0.3026-0.584-0.4816-0.136-0.1818-0.241-0.3324-0.315-0.4517h-0.086v3.4602h-1.005zm0.988-5.7272c0 0.49432 0.073 0.9304 0.218 1.3082 0.145 0.375 0.356 0.669 0.635 0.8821 0.278 0.2102 0.619 0.3154 1.022 0.3154 0.421 0 0.772-0.1108 1.053-0.3324 0.284-0.2245 0.497-0.5256 0.639-0.90344 0.145-0.38068 0.217-0.80398 0.217-1.2699 0-0.46022-0.071-0.875-0.213-1.2443-0.139-0.37215-0.35-0.66619-0.635-0.8821-0.281-0.21875-0.634-0.32812-1.061-0.32812-0.409 0-0.752 0.10369-1.031 0.31108-0.278 0.20454-0.489 0.49147-0.631 0.86079-0.142 0.36648-0.213 0.79404-0.213 1.2827zm9.069 3.4091c-0.631 0-1.175-0.1392-1.633-0.4176-0.454-0.2813-0.805-0.6733-1.052-1.1762-0.244-0.5057-0.367-1.0937-0.367-1.7642 0-0.67046 0.123-1.2614 0.367-1.7727 0.247-0.5142 0.591-0.91477 1.031-1.2017 0.443-0.28978 0.96-0.43466 1.551-0.43466 0.341 0 0.678 0.05682 1.01 0.17045 0.333 0.11364 0.635 0.2983 0.908 0.55398 0.273 0.25284 0.49 0.58807 0.652 1.0057 0.162 0.41762 0.243 0.93182 0.243 1.5426v0.42613h-5.046v-0.86932h4.023c0-0.36931-0.074-0.69886-0.222-0.98863-0.144-0.28978-0.352-0.51847-0.622-0.68608-0.267-0.16762-0.582-0.25142-0.946-0.25142-0.4 0-0.747 0.09943-1.039 0.29829-0.29 0.19603-0.513 0.45171-0.67 0.76705-0.156 0.31534-0.234 0.65341-0.234 1.0142v0.57955c0 0.49432 0.085 0.91335 0.256 1.2571 0.173 0.3409 0.413 0.6009 0.72 0.7799 0.307 0.1761 0.663 0.2642 1.07 0.2642 0.264 0 0.502-0.037 0.715-0.1108 0.216-0.0767 0.402-0.1904 0.559-0.341 0.156-0.1534 0.277-0.3437 0.362-0.571l0.972 0.2728c-0.103 0.3295-0.275 0.6193-0.516 0.8693-0.242 0.2471-0.54 0.4403-0.895 0.5795-0.355 0.1364-0.754 0.2046-1.197 0.2046zm7.819-1.5 2.284-5.1818h0.955l-2.83 6.5454h-0.818l-2.778-6.5454h0.937l2.25 5.1818zm-2.574-5.1818v6.5454h-1.005v-6.5454h1.005zm5.148 6.5454v-6.5454h1.006v6.5454h-1.006zm6.784 0v-5.625h-1.739c-0.392 0-0.7 0.09091-0.924 0.27273-0.225 0.18182-0.337 0.43182-0.337 0.75 0 0.3125 0.101 0.55824 0.303 0.73721 0.204 0.17898 0.484 0.26847 0.839 0.26847h2.114v0.9375h-2.114c-0.443 0-0.825-0.07813-1.146-0.23438s-0.568-0.37926-0.742-0.66903c-0.173-0.29261-0.26-0.6392-0.26-1.0398 0-0.40341 0.091-0.75 0.273-1.0398 0.182-0.28977 0.442-0.51278 0.78-0.66903 0.341-0.15625 0.746-0.23437 1.214-0.23437h2.694v6.5454h-0.955zm-4.364 0 1.858-3.2557h1.091l-1.858 3.2557h-1.091zm11.546-1.483 3.153-5.0624h1.159v6.5454h-1.006v-5.0625l-3.136 5.0625h-1.176v-6.5454h1.006v5.0624zm8.813 1.6194c-0.613 0-1.142-0.1449-1.585-0.4347s-0.784-0.6889-1.023-1.1974c-0.238-0.50856-0.358-1.0895-0.358-1.7429 0-0.66477 0.122-1.2514 0.367-1.7599 0.247-0.51136 0.591-0.91051 1.031-1.1974 0.443-0.28978 0.96-0.43466 1.551-0.43466 0.46 0 0.875 0.08523 1.244 0.25568 0.37 0.17045 0.672 0.40909 0.908 0.71591s0.382 0.66477 0.439 1.0739h-1.006c-0.076-0.29829-0.247-0.5625-0.511-0.79261-0.261-0.23296-0.614-0.34943-1.057-0.34943-0.392 0-0.736 0.10227-1.031 0.30682-0.293 0.2017-0.521 0.48721-0.686 0.85653-0.162 0.36648-0.243 0.79687-0.243 1.2912 0 0.50568 0.079 0.94603 0.239 1.321 0.161 0.375 0.389 0.6662 0.681 0.8736 0.296 0.2074 0.642 0.3111 1.04 0.3111 0.262 0 0.499-0.0455 0.712-0.1364s0.393-0.2216 0.541-0.3921c0.148-0.1704 0.253-0.375 0.315-0.6136h1.006c-0.057 0.3864-0.197 0.7344-0.422 1.044-0.221 0.3069-0.515 0.5512-0.882 0.733-0.364 0.179-0.787 0.2685-1.27 0.2685zm3.529-5.7444v-0.9375h5.318v0.9375h-2.148v5.608h-1.006v-5.608h-2.164zm9.189 5.7444c-0.631 0-1.175-0.1392-1.632-0.4176-0.454-0.2813-0.805-0.6733-1.052-1.1762-0.245-0.5057-0.367-1.0937-0.367-1.7642 0-0.67046 0.122-1.2614 0.367-1.7727 0.247-0.5142 0.59-0.91477 1.031-1.2017 0.443-0.28978 0.96-0.43466 1.551-0.43466 0.341 0 0.677 0.05682 1.01 0.17045 0.332 0.11364 0.635 0.2983 0.908 0.55398 0.272 0.25284 0.49 0.58807 0.652 1.0057 0.161 0.41762 0.242 0.93182 0.242 1.5426v0.42613h-5.045v-0.86932h4.023c0-0.36931-0.074-0.69886-0.222-0.98863-0.145-0.28978-0.352-0.51847-0.622-0.68608-0.267-0.16762-0.582-0.25142-0.946-0.25142-0.401 0-0.747 0.09943-1.04 0.29829-0.29 0.19603-0.513 0.45171-0.669 0.76705s-0.234 0.65341-0.234 1.0142v0.57955c0 0.49432 0.085 0.91335 0.255 1.2571 0.174 0.3409 0.414 0.6009 0.721 0.7799 0.306 0.1761 0.663 0.2642 1.069 0.2642 0.264 0 0.503-0.037 0.716-0.1108 0.216-0.0767 0.402-0.1904 0.558-0.341 0.157-0.1534 0.277-0.3437 0.363-0.571l0.971 0.2728c-0.102 0.3295-0.274 0.6193-0.515 0.8693-0.242 0.2471-0.54 0.4403-0.895 0.5795-0.355 0.1364-0.755 0.2046-1.198 0.2046zm9.286-6.6818v6.5454h-1.006v-6.5454h1.006zm-0.392 3.1193v0.9375c-0.228 0.08523-0.453 0.16052-0.678 0.22586-0.224 0.0625-0.46 0.11221-0.707 0.14914-0.247 0.03409-0.519 0.05114-0.814 0.05114-0.742 0-1.337-0.20028-1.786-0.60085-0.446-0.40057-0.669-1.0014-0.669-1.8026v-2.0966h1.006v2.0966c0 0.33523 0.064 0.6108 0.192 0.82671 0.128 0.2159 0.301 0.37642 0.52 0.48153 0.218 0.10511 0.464 0.15767 0.737 0.15767 0.426 0 0.811-0.03835 1.155-0.11506 0.346-0.07954 0.694-0.18324 1.044-0.31108zm4.981 3.5625c-0.631 0-1.175-0.1392-1.632-0.4176-0.454-0.2813-0.805-0.6733-1.052-1.1762-0.245-0.5057-0.367-1.0937-0.367-1.7642 0-0.67046 0.122-1.2614 0.367-1.7727 0.247-0.5142 0.59-0.91477 1.031-1.2017 0.443-0.28978 0.96-0.43466 1.551-0.43466 0.341 0 0.677 0.05682 1.01 0.17045 0.332 0.11364 0.635 0.2983 0.908 0.55398 0.272 0.25284 0.49 0.58807 0.652 1.0057 0.161 0.41762 0.242 0.93182 0.242 1.5426v0.42613h-5.045v-0.86932h4.023c0-0.36931-0.074-0.69886-0.222-0.98863-0.145-0.28978-0.352-0.51847-0.622-0.68608-0.267-0.16762-0.582-0.25142-0.946-0.25142-0.401 0-0.747 0.09943-1.04 0.29829-0.29 0.19603-0.513 0.45171-0.669 0.76705s-0.234 0.65341-0.234 1.0142v0.57955c0 0.49432 0.085 0.91335 0.255 1.2571 0.174 0.3409 0.414 0.6009 0.721 0.7799 0.306 0.1761 0.663 0.2642 1.069 0.2642 0.264 0 0.503-0.037 0.716-0.1108 0.216-0.0767 0.402-0.1904 0.558-0.341 0.157-0.1534 0.277-0.3437 0.363-0.571l0.971 0.2728c-0.102 0.3295-0.274 0.6193-0.515 0.8693-0.242 0.2471-0.54 0.4403-0.895 0.5795-0.355 0.1364-0.755 0.2046-1.198 0.2046zm8.621-3.8694v0.9375h-3.614v-0.9375h3.614zm-3.375-2.8125v6.5454h-1.006v-6.5454h1.006zm4.142 0v6.5454h-1.006v-6.5454h1.006zm2.842 5.0624 3.154-5.0624h1.159v6.5454h-1.006v-5.0625l-3.136 5.0625h-1.176v-6.5454h1.005v5.0624zm10.092 1.483v-5.625h-1.738c-0.392 0-0.701 0.09091-0.925 0.27273-0.225 0.18182-0.337 0.43182-0.337 0.75 0 0.3125 0.101 0.55824 0.303 0.73721 0.204 0.17898 0.484 0.26847 0.839 0.26847h2.114v0.9375h-2.114c-0.443 0-0.825-0.07813-1.146-0.23438s-0.568-0.37926-0.741-0.66903c-0.174-0.29261-0.26-0.6392-0.26-1.0398 0-0.40341 0.09-0.75 0.272-1.0398 0.182-0.28977 0.442-0.51278 0.78-0.66903 0.341-0.15625 0.746-0.23437 1.215-0.23437h2.693v6.5454h-0.955zm-4.363 0 1.858-3.2557h1.09l-1.857 3.2557h-1.091z" fill="#FBF1C7"/>
 <line x1="438" x2="277" y1="18" y2="18" stroke="#FBF1C7" stroke-width="2"/>
 <line x1="540" x2="462" y1="18" y2="18" stroke="#FBF1C7" stroke-width="2"/>
 <path d="m463.06 12v-8.7273h2.949c0.684 0 1.244 0.12358 1.679 0.37074 0.437 0.24431 0.761 0.57528 0.971 0.99289 0.21 0.41762 0.316 0.88353 0.316 1.3977 0 0.51421-0.106 0.98153-0.316 1.402-0.207 0.42045-0.528 0.75568-0.963 1.0057-0.434 0.24716-0.991 0.37074-1.67 0.37074h-2.114v-0.9375h2.08c0.468 0 0.845-0.08097 1.129-0.2429s0.49-0.38068 0.618-0.65625c0.13-0.27841 0.196-0.59233 0.196-0.94176s-0.066-0.66193-0.196-0.9375c-0.128-0.27557-0.335-0.49148-0.622-0.64773-0.287-0.15909-0.668-0.23863-1.142-0.23863h-1.858v7.7898h-1.057zm10.069 0.1364c-0.59 0-1.109-0.1407-1.555-0.4219-0.443-0.2813-0.79-0.6747-1.04-1.1804-0.247-0.5057-0.37-1.0966-0.37-1.7727 0-0.68181 0.123-1.277 0.37-1.7855 0.25-0.50852 0.597-0.90341 1.04-1.1847 0.446-0.28125 0.965-0.42187 1.555-0.42187 0.591 0 1.108 0.14062 1.552 0.42187 0.446 0.28125 0.792 0.67614 1.039 1.1847 0.25 0.50852 0.375 1.1037 0.375 1.7855 0 0.67614-0.125 1.267-0.375 1.7727-0.247 0.5057-0.593 0.8991-1.039 1.1804-0.444 0.2812-0.961 0.4219-1.552 0.4219zm0-0.9034c0.449 0 0.819-0.1151 1.108-0.3452 0.29-0.2301 0.505-0.5327 0.644-0.90769 0.139-0.375 0.209-0.78125 0.209-1.2188s-0.07-0.84517-0.209-1.223-0.354-0.68324-0.644-0.91619c-0.289-0.23296-0.659-0.34943-1.108-0.34943-0.448 0-0.818 0.11647-1.108 0.34943-0.289 0.23295-0.504 0.53835-0.643 0.91619s-0.209 0.78551-0.209 1.223 0.07 0.84375 0.209 1.2188c0.139 0.37499 0.354 0.67759 0.643 0.90769 0.29 0.2301 0.66 0.3452 1.108 0.3452zm3.922 0.767v-0.9375h0.239c0.196 0 0.359-0.0384 0.49-0.1151 0.13-0.0795 0.235-0.2173 0.315-0.4133 0.082-0.1989 0.145-0.4744 0.187-0.82671 0.046-0.35512 0.079-0.80682 0.098-1.3551l0.12-2.8977h4.363v6.5454h-1.005v-5.608h-2.404l-0.102 2.3352c-0.023 0.53693-0.071 1.01-0.145 1.419-0.071 0.4063-0.18 0.7472-0.328 1.0227-0.145 0.2756-0.338 0.483-0.579 0.6222-0.242 0.1392-0.545 0.2088-0.908 0.2088h-0.341zm8.527-4.1761h1.875c0.767 0 1.354 0.19461 1.76 0.58381s0.609 0.8821 0.609 1.4787c0 0.39204-0.091 0.74854-0.272 1.0696-0.182 0.3181-0.449 0.5724-0.802 0.7628-0.352 0.1874-0.784 0.2812-1.295 0.2812h-2.744v-6.5454h1.005v5.608h1.739c0.398 0 0.724-0.1051 0.98-0.3153 0.256-0.2103 0.384-0.4802 0.384-0.8097 0-0.34659-0.128-0.62926-0.384-0.84801s-0.582-0.32813-0.98-0.32813h-1.875v-0.9375z" fill="#FBF1C7"/>
 <line x1="573" x2="667" y1="18" y2="18" stroke="#FBF1C7" stroke-width="2"/>
 <path d="m573.31 12v-0.9716h0.255c0.364 0 0.647-0.1165 0.849-0.3494 0.201-0.233 0.346-0.6094 0.434-1.1293 0.091-0.51989 0.152-1.2088 0.183-2.0668l0.154-4.2102h5.318v8.7273h-1.057v-7.7898h-3.255l-0.137 3.4773c-0.034 0.91477-0.118 1.6932-0.251 2.3352-0.134 0.6421-0.368 1.1321-0.703 1.4702-0.336 0.3381-0.824 0.5071-1.466 0.5071h-0.324zm11.827 0.1364c-0.591 0-1.109-0.1407-1.555-0.4219-0.443-0.2813-0.79-0.6747-1.04-1.1804-0.247-0.5057-0.371-1.0966-0.371-1.7727 0-0.68181 0.124-1.277 0.371-1.7855 0.25-0.50852 0.597-0.90341 1.04-1.1847 0.446-0.28125 0.964-0.42187 1.555-0.42187s1.108 0.14062 1.551 0.42187c0.446 0.28125 0.793 0.67614 1.04 1.1847 0.25 0.50852 0.375 1.1037 0.375 1.7855 0 0.67614-0.125 1.267-0.375 1.7727-0.247 0.5057-0.594 0.8991-1.04 1.1804-0.443 0.2812-0.96 0.4219-1.551 0.4219zm0-0.9034c0.449 0 0.818-0.1151 1.108-0.3452s0.504-0.5327 0.644-0.90769c0.139-0.375 0.208-0.78125 0.208-1.2188s-0.069-0.84517-0.208-1.223c-0.14-0.37784-0.354-0.68324-0.644-0.91619-0.29-0.23296-0.659-0.34943-1.108-0.34943s-0.818 0.11647-1.108 0.34943c-0.289 0.23295-0.504 0.53835-0.643 0.91619s-0.209 0.78551-0.209 1.223 0.07 0.84375 0.209 1.2188c0.139 0.37499 0.354 0.67759 0.643 0.90769 0.29 0.2301 0.659 0.3452 1.108 0.3452zm8.541-5.7784v0.9375h-3.034v5.608h-1.006v-6.5454h4.04zm2.474 5.0624 3.153-5.0624h1.159v6.5454h-1.005v-5.0625l-3.137 5.0625h-1.176v-6.5454h1.006v5.0624zm10.535-2.25v0.9375h-3.614v-0.9375h3.614zm-3.375-2.8125v6.5454h-1.006v-6.5454h1.006zm4.142 0v6.5454h-1.006v-6.5454h1.006z" fill="#FBF1C7"/>
 <defs>
  <filter id="filter0_d_0_1" x="40.557" y="60.364" width="637.83" height="19.727" color-interpolation-filters="sRGB" filterUnits="userSpaceOnUse">
   <feFlood flood-opacity="0" result="BackgroundImageFix"/>
   <feColorMatrix in="SourceAlpha" result="hardAlpha" values="0 0 0 0 0 0 0 0 0 0 0 0 0 0 0 0 0 0 127 0"/>
   <feOffset dy="4"/>
   <feGaussianBlur stdDeviation="2"/>
   <feComposite in2="hardAlpha" operator="out"/>
   <feColorMatrix values="0 0 0 0 0 0 0 0 0 0 0 0 0 0 0 0 0 0 0.25 0"/>
   <feBlend in2="BackgroundImageFix" result="effect1_dropShadow_0_1"/>
   <feBlend in="SourceGraphic" in2="effect1_dropShadow_0_1" result="shape"/>
  </filter>
 </defs>
</svg>
