<svg width="400" height="150" viewBox="0 0 400 150" fill="none" xmlns="http://www.w3.org/2000/svg">
<rect width="400" height="150" fill="#1E1E1E"/>
<rect width="400" height="150" fill="white"/>
<path d="M66.7955 57.0909V92H57.6591V57.0909H66.7955ZM35.4318 92L46.1364 73.4545L35.5682 57.0909H47.2955L54.3182 70.7273H70.4091L77.0909 57.0909H88.75L78.6591 73.3182L89.0227 92H77.5682L71.5682 79.4545H53.0909L46.8182 92H35.4318ZM109.051 82.25L114.778 65.8182H121.46L111.983 92H106.119L96.9148 65.8182H103.597L109.051 82.25ZM101.688 65.8182V92H92.8239V65.8182H101.688ZM117.028 92V65.8182H125.756V92H117.028ZM137.572 92.4091C135.902 92.4091 134.425 92.1364 133.141 91.5909C131.868 91.0341 130.868 90.1932 130.141 89.0682C129.413 87.9432 129.05 86.5114 129.05 84.7727C129.05 83.3409 129.294 82.1193 129.783 81.108C130.271 80.0852 130.953 79.25 131.828 78.6023C132.703 77.9545 133.72 77.4602 134.879 77.1193C136.05 76.7784 137.311 76.5568 138.663 76.4545C140.129 76.3409 141.305 76.2045 142.192 76.0455C143.089 75.875 143.737 75.642 144.135 75.3466C144.533 75.0398 144.732 74.6364 144.732 74.1364V74.0682C144.732 73.3864 144.47 72.8636 143.947 72.5C143.425 72.1364 142.754 71.9545 141.936 71.9545C141.038 71.9545 140.305 72.1534 139.737 72.5511C139.18 72.9375 138.845 73.5341 138.732 74.3409H130.072C130.186 72.75 130.692 71.2841 131.589 69.9432C132.499 68.5909 133.822 67.5114 135.561 66.7045C137.3 65.8864 139.47 65.4773 142.072 65.4773C143.947 65.4773 145.629 65.6989 147.118 66.142C148.607 66.5739 149.874 67.1818 150.919 67.9659C151.964 68.7386 152.76 69.6477 153.305 70.6932C153.862 71.7273 154.141 72.8523 154.141 74.0682V92H145.345V88.3182H145.141C144.618 89.2955 143.982 90.0852 143.232 90.6875C142.493 91.2898 141.646 91.7273 140.692 92C139.749 92.2727 138.709 92.4091 137.572 92.4091ZM140.641 86.4773C141.357 86.4773 142.027 86.3295 142.652 86.0341C143.288 85.7386 143.805 85.3125 144.203 84.7557C144.601 84.1989 144.8 83.5227 144.8 82.7273V80.5455C144.55 80.6477 144.283 80.7443 143.999 80.8352C143.726 80.9261 143.43 81.0114 143.112 81.0909C142.805 81.1705 142.476 81.2443 142.124 81.3125C141.783 81.3807 141.425 81.4432 141.05 81.5C140.322 81.6136 139.726 81.8011 139.26 82.0625C138.805 82.3125 138.464 82.625 138.237 83C138.021 83.3636 137.913 83.7727 137.913 84.2273C137.913 84.9545 138.169 85.5114 138.68 85.8977C139.192 86.2841 139.845 86.4773 140.641 86.4773ZM156.638 72.8409V65.8182H182.001V72.8409H173.683V92H164.82V72.8409H156.638ZM190.746 72.9091H198.791C202.53 72.9091 205.473 73.7727 207.621 75.5C209.768 77.2159 210.848 79.5795 210.859 82.5909C210.848 84.5341 210.354 86.2102 209.376 87.6193C208.411 89.0284 207.024 90.1136 205.217 90.875C203.422 91.625 201.28 92 198.791 92H185.496V65.8182H194.359V84.9773H198.791C199.757 84.9773 200.553 84.75 201.178 84.2955C201.803 83.8295 202.121 83.2386 202.132 82.5227C202.121 81.7614 201.803 81.142 201.178 80.6648C200.553 80.1761 199.757 79.9318 198.791 79.9318H190.746V72.9091ZM236.969 92.4773C234.128 92.4773 231.696 91.9148 229.673 90.7898C227.651 89.6534 226.099 88.0739 225.02 86.0511C223.94 84.017 223.401 81.6591 223.401 78.9773C223.401 76.2955 223.94 73.9432 225.02 71.9205C226.099 69.8864 227.651 68.3068 229.673 67.1818C231.696 66.0455 234.128 65.4773 236.969 65.4773C239.537 65.4773 241.759 65.9432 243.634 66.875C245.52 67.7955 246.98 69.1023 248.014 70.7955C249.048 72.4773 249.571 74.4545 249.582 76.7273H240.855C240.73 75.3523 240.332 74.3068 239.662 73.5909C239.003 72.8636 238.151 72.5 237.105 72.5C236.287 72.5 235.571 72.7386 234.957 73.2159C234.344 73.6818 233.866 74.392 233.526 75.3466C233.185 76.2898 233.014 77.4773 233.014 78.9091C233.014 80.3409 233.185 81.5341 233.526 82.4886C233.866 83.4318 234.344 84.142 234.957 84.6193C235.571 85.0852 236.287 85.3182 237.105 85.3182C237.798 85.3182 238.412 85.1591 238.946 84.8409C239.48 84.5114 239.912 84.0341 240.241 83.4091C240.582 82.7727 240.787 82 240.855 81.0909H249.582C249.548 83.3977 249.02 85.4091 247.997 87.125C246.974 88.8295 245.526 90.1477 243.651 91.0795C241.787 92.0114 239.56 92.4773 236.969 92.4773ZM269.214 75.4318V82.5227H254.76V75.4318H269.214ZM261.851 65.8182V92H252.442V65.8182H261.851ZM276.919 92.4773C274.169 92.4773 271.817 91.8864 269.862 90.7045C267.908 89.5227 266.413 87.9034 265.379 85.8466C264.345 83.7898 263.828 81.4545 263.828 78.8409C263.828 76.25 264.345 73.9489 265.379 71.9375C266.413 69.9261 267.908 68.3466 269.862 67.1989C271.817 66.0511 274.169 65.4773 276.919 65.4773C279.669 65.4773 282.016 66.0511 283.959 67.1989C285.913 68.3466 287.408 69.9261 288.442 71.9375C289.487 73.9489 290.01 76.25 290.01 78.8409C290.01 81.4545 289.487 83.7898 288.442 85.8466C287.408 87.9034 285.913 89.5227 283.959 90.7045C282.016 91.8864 279.669 92.4773 276.919 92.4773ZM276.919 85.1136C277.964 85.1136 278.794 84.8693 279.408 84.3807C280.021 83.8807 280.464 83.1648 280.737 82.233C281.01 81.2898 281.146 80.1591 281.146 78.8409C281.146 77.5227 281.01 76.4091 280.737 75.5C280.464 74.5795 280.021 73.8864 279.408 73.4205C278.794 72.9432 277.964 72.7045 276.919 72.7045C275.874 72.7045 275.033 72.9375 274.396 73.4034C273.771 73.8693 273.317 74.5568 273.033 75.4659C272.76 76.375 272.624 77.5 272.624 78.8409C272.624 80.1818 272.76 81.3182 273.033 82.25C273.317 83.1818 273.771 83.892 274.396 84.3807C275.033 84.8693 275.874 85.1136 276.919 85.1136ZM292.349 99.7727V84.9091H294.259C294.861 84.6705 295.332 84.108 295.673 83.2216C296.026 82.3239 296.293 81.2727 296.474 80.0682C296.668 78.8636 296.804 77.6477 296.884 76.4205C296.974 75.1818 297.054 74.1023 297.122 73.1818L297.668 65.8182H320.031V84.9091H324.122V99.7727H315.259V92H301.486V99.7727H292.349ZM303.259 84.9091H311.304V72.6364H305.44V73.1818C305.304 76.0114 305.077 78.3693 304.759 80.2557C304.44 82.1307 303.94 83.6818 303.259 84.9091ZM332.871 72.9091H340.916C344.655 72.9091 347.598 73.7727 349.746 75.5C351.893 77.2159 352.973 79.5795 352.984 82.5909C352.973 84.5341 352.479 86.2102 351.501 87.6193C350.536 89.0284 349.149 90.1136 347.342 90.875C345.547 91.625 343.405 92 340.916 92H327.621V65.8182H336.484V84.9773H340.916C341.882 84.9773 342.678 84.75 343.303 84.2955C343.928 83.8295 344.246 83.2386 344.257 82.5227C344.246 81.7614 343.928 81.142 343.303 80.6648C342.678 80.1761 341.882 79.9318 340.916 79.9318H332.871V72.9091ZM354.893 92V65.8182H364.303V92H354.893Z" fill="black"/>
</svg>
