<svg width="301" height="108" viewBox="0 0 301 108" fill="none" xmlns="http://www.w3.org/2000/svg">
<g clip-path="url(#clip0_0_1)">
<path d="M124.526 81.0953H124.393C124.453 81.0953 124.493 81.162 124.553 81.1687H124.593L124.526 81.102V81.0953ZM124.553 81.1687C123.933 81.1753 122.373 81.502 120.726 81.502C115.526 81.502 113.726 79.102 113.726 75.9687V55.0953H124.326C124.926 55.0953 125.393 54.562 125.393 53.8287V42.4953C125.393 41.8953 124.859 41.362 124.326 41.362H113.726V27.2953C113.726 26.762 113.393 26.4287 112.793 26.4287H98.3928C97.7928 26.4287 97.4595 26.762 97.4595 27.2953V41.762C97.4595 41.762 90.1928 43.562 89.7261 43.6287C89.1928 43.762 88.8595 44.2287 88.8595 44.762V53.8287C88.8595 54.562 89.3928 55.0953 89.9928 55.0953H97.3928V76.962C97.3928 93.2287 108.726 94.8953 116.459 94.8953C119.993 94.8953 124.259 93.762 124.926 93.4287C125.326 93.2953 125.526 92.8287 125.526 92.362V82.362C125.535 82.0784 125.442 81.8009 125.263 81.5805C125.084 81.3601 124.832 81.2116 124.553 81.162V81.1687ZM282.526 66.4953C282.526 54.4287 277.659 52.8287 272.526 53.362C268.526 53.6287 265.326 55.6287 265.326 55.6287V79.0953C265.326 79.0953 268.593 81.362 273.459 81.4953C280.326 81.6953 282.526 79.2287 282.526 66.4953ZM298.726 65.4287C298.726 88.2953 291.326 94.8287 278.393 94.8287C267.459 94.8287 261.593 89.2953 261.593 89.2953C261.593 89.2953 261.326 92.362 260.993 92.762C260.793 93.162 260.459 93.2953 260.059 93.2953H250.193C249.526 93.2953 248.926 92.762 248.926 92.162L249.059 18.0953C249.059 17.4953 249.593 16.962 250.193 16.962H264.393C264.993 16.962 265.526 17.4953 265.526 18.0953V43.2287C265.526 43.2287 270.993 39.6953 278.993 39.6953L278.926 39.562C286.926 39.562 298.726 42.562 298.726 65.4287ZM240.593 41.362H226.593C225.859 41.362 225.459 41.8953 225.459 42.6287V78.8953C225.459 78.8953 221.793 81.4953 216.793 81.4953C211.793 81.4953 210.326 79.2287 210.326 74.2287V42.562C210.326 41.962 209.793 41.4287 209.193 41.4287H194.926C194.326 41.4287 193.793 41.962 193.793 42.562V76.6287C193.793 91.2953 201.993 94.962 213.259 94.962C222.526 94.962 230.059 89.8287 230.059 89.8287C230.059 89.8287 230.393 92.4287 230.593 92.8287C230.726 93.162 231.193 93.4287 231.659 93.4287H240.593C241.326 93.4287 241.726 92.8953 241.726 92.2953L241.859 42.4953C241.859 41.8953 241.326 41.362 240.593 41.362ZM82.5928 41.2953H68.3928C67.7928 41.2953 67.2595 41.8953 67.2595 42.6287V91.562C67.2595 92.8953 68.1261 93.362 69.2595 93.362H82.0595C83.3928 93.362 83.7261 92.762 83.7261 91.562V42.4287C83.7261 41.8287 83.1928 41.2953 82.5928 41.2953ZM75.5928 18.762C70.4595 18.762 66.3928 22.8287 66.3928 27.962C66.3928 33.0953 70.4595 37.162 75.5928 37.162C80.5928 37.162 84.6595 33.0953 84.6595 27.962C84.6595 22.8287 80.5928 18.762 75.5928 18.762ZM185.526 17.0953H171.459C170.859 17.0953 170.326 17.6287 170.326 18.2287V45.4953H148.259V18.2287C148.259 17.6287 147.726 17.0953 147.126 17.0953H132.926C132.326 17.0953 131.793 17.6287 131.793 18.2287V92.2953C131.793 92.8953 132.393 93.4287 132.926 93.4287H147.126C147.726 93.4287 148.259 92.8953 148.259 92.2953V60.6287H170.326L170.193 92.2953C170.193 92.8953 170.726 93.4287 171.326 93.4287H185.526C186.126 93.4287 186.659 92.8953 186.659 92.2953V18.2287C186.659 17.6287 186.126 17.0953 185.526 17.0953ZM59.7261 49.8953V88.162C59.7261 88.4287 59.6595 88.8953 59.3261 89.0287C59.3261 89.0287 50.9928 94.962 37.2595 94.962C20.6595 94.962 0.992802 89.762 0.992802 55.4953C0.992802 21.2287 18.1928 14.162 34.9928 14.2287C49.5261 14.2287 55.3928 17.4953 56.3261 18.0953C56.5928 18.4287 56.7261 18.6953 56.7261 19.0287L53.9261 30.8953C53.9261 31.4953 53.3261 32.2287 52.5928 32.0287C50.1928 31.2953 46.5928 29.8287 38.1261 29.8287C28.3261 29.8287 17.7928 32.6287 17.7928 54.6953C17.7928 76.762 27.7928 79.362 34.9928 79.362C41.1261 79.362 43.3261 78.6287 43.3261 78.6287V63.2953H33.5261C32.7928 63.2953 32.2595 62.762 32.2595 62.162V49.8953C32.2595 49.2953 32.7928 48.762 33.5261 48.762H58.4595C59.1928 48.762 59.7261 49.2953 59.7261 49.8953Z" fill="white"/>
</g>
<defs>
<clipPath id="clip0_0_1">
<rect width="300" height="107.143" fill="white" transform="translate(0.992802 0.657242)"/>
</clipPath>
</defs>
</svg>
