<svg width="526" height="306" viewBox="0 0 526 306" fill="none" xmlns="http://www.w3.org/2000/svg">
<path d="M4.01023 305.753C1.8011 305.758 0.00566466 303.972 1.30895e-05 301.763C-0.00563848 299.554 1.78064 297.758 3.98977 297.753L4.01023 305.753ZM482.667 21.7527C482.667 9.97062 492.218 0.419358 504 0.419358C515.782 0.419358 525.333 9.97062 525.333 21.7527C525.333 33.5348 515.782 43.086 504 43.086C492.218 43.086 482.667 33.5348 482.667 21.7527ZM3.98977 297.753L104.937 297.494L104.958 305.494L4.01023 305.753L3.98977 297.753ZM382.034 18.0647L503.99 17.7527L504.01 25.7527L382.054 26.0647L382.034 18.0647ZM239.496 161.803C239.035 82.6969 302.927 18.2671 382.034 18.0647L382.054 26.0647C307.376 26.2557 247.06 87.0787 247.496 161.756L239.496 161.803ZM104.937 297.494C179.616 297.303 239.931 236.48 239.496 161.803L247.496 161.756C247.957 240.862 184.065 305.292 104.958 305.494L104.937 297.494Z" fill="white"/>
</svg>
