<svg width="360" height="120" viewBox="0 0 360 120" fill="none" xmlns="http://www.w3.org/2000/svg">
<rect width="360" height="120" fill="#D9D9D9" fill-opacity="0.01"/>
<path d="M33.2727 117.5C19.315 117.5 8.00001 106.185 8.00002 92.2273L8.00009 2.90909H48.1819C55.091 2.90909 61.1365 4.27273 66.3183 7C71.5001 9.72727 75.5304 13.5606 78.4092 18.5C81.288 23.4394 82.7274 29.2121 82.7274 35.8182C82.7274 42.4848 81.2425 48.2576 78.2728 53.1364C75.3334 58.0152 71.1971 61.7727 65.8637 64.4091C60.5607 67.0455 54.3637 68.3636 47.2728 68.3636H23.2728V48.7273H42.1819C45.1516 48.7273 47.6819 48.2121 49.7728 47.1818C51.894 46.1212 53.5152 44.6212 54.6365 42.6818C55.788 40.7424 56.3637 38.4545 56.3637 35.8182C56.3637 33.1515 55.788 30.8788 54.6365 29C53.5152 27.0909 51.894 25.6364 49.7728 24.6364C47.6819 23.6061 45.1516 23.0909 42.1819 23.0909H33.2728V86C33.2728 91.5229 37.75 96 43.2728 96H65.0001L65 117.5H33.2727V117.5Z" fill="white"/>
<path d="M82.0001 96C87.5229 96 92.0001 91.5228 92.0001 86V2.90909H132.182C139.091 2.90909 145.136 4.16666 150.318 6.68182C155.5 9.19697 159.53 12.8182 162.409 17.5455C165.288 22.2727 166.727 27.9394 166.727 34.5455C166.727 41.2121 165.243 46.8333 162.273 51.4091C159.333 55.9848 155.197 59.4394 149.864 61.7727C144.561 64.1061 138.364 65.2727 131.273 65.2727H107.273V45.6364H126.182C129.152 45.6364 131.682 45.2727 133.773 44.5455C135.894 43.7879 137.515 42.5909 138.636 40.9545C139.788 39.3182 140.364 37.1818 140.364 34.5455C140.364 31.8788 139.788 29.7121 138.636 28.0455C137.515 26.3485 135.894 25.1061 133.773 24.3182C131.682 23.5 129.152 23.0909 126.182 23.0909H117.273L117.273 92.2273C117.273 106.185 105.958 117.5 92 117.5V117.5H65L65.0001 96H82.0001ZM146.546 53.2727L169.818 96H142.364L119.636 53.2727H146.546Z" fill="white"/>
<path d="M270 2.90909V24.3636H265.918C261.57 24.3636 258.046 27.8881 258.046 32.2358V82.1783C258.046 89.8118 251.857 96 244.224 96V96C239.673 96 235.414 93.76 232.835 90.0105L203.318 47.0909H202.773V96H177.5V16.9345C177.5 9.1885 183.78 2.90909 191.526 2.90909V2.90909C196.172 2.90909 200.518 5.21071 203.128 9.05498L232.046 51.6364H232.773V32.9091C232.773 16.3405 246.204 2.90909 262.773 2.90909H270Z" fill="white"/>
<path d="M305.818 96H270V2.90909H305.455C315.03 2.90909 323.303 4.77273 330.273 8.5C337.273 12.197 342.667 17.5303 346.455 24.5C350.273 31.4394 352.182 39.7576 352.182 49.4545C352.182 59.1515 350.288 67.4848 346.5 74.4545C342.712 81.3939 337.349 86.7273 330.409 90.4545C323.47 94.1515 315.273 96 305.818 96ZM295.273 74.5455H304.909C309.515 74.5455 313.44 73.803 316.682 72.3182C319.955 70.8333 322.44 68.2727 324.136 64.6364C325.864 61 326.727 55.9394 326.727 49.4545C326.727 42.9697 325.849 37.9091 324.091 34.2727C322.364 30.6364 319.818 28.0758 316.455 26.5909C313.121 25.1061 309.03 24.3636 304.182 24.3636H295.273V74.5455Z" fill="white"/>
<rect x="47" y="96" width="35" height="21.5" fill="white"/>
</svg>