<svg width="500" height="130" viewBox="0 0 500 130" fill="none" xmlns="http://www.w3.org/2000/svg">
<path d="M0 0H500L468.593 17.3411C436.11 35.2768 410.459 63.4389 395.627 97.4519V97.4519C387.007 117.22 367.491 130 345.926 130H0V0Z" fill="white" fill-opacity="0.25"/>
<path d="M120 80.2827L142.5 72.2827L163.17 110.283L136 110.283L120 80.2827Z" fill="white"/>
<path d="M17 32H39.5335C48.9458 32 57.1793 38.3354 59.5908 47.4336C60.5143 50.9177 60.5143 54.5823 59.5908 58.0664C57.1793 67.1646 48.9458 73.5 39.5335 73.5H17M101 32H123.533C132.946 32 141.179 38.3354 143.591 47.4336C144.514 50.9177 144.514 54.5823 143.591 58.0664C141.179 67.1646 132.946 73.5 123.533 73.5H101M288.189 96.2722H300.919C316.989 96.2722 330.735 84.704 333.505 68.8481C334.165 65.0688 334.165 61.2034 333.505 57.4241C330.735 41.5682 316.989 30 300.919 30H259.361C248.921 30 240.457 38.4774 240.457 48.9349V96.7609C240.457 97.6692 239.304 98.0563 238.758 97.3314L189.699 32.2544C189.153 31.5295 188 31.9166 188 32.8249V110" stroke="white" stroke-width="25"/>
</svg>
