<svg width="330" height="105" viewBox="0 0 330 105" fill="none" xmlns="http://www.w3.org/2000/svg">
<path d="M103 63.2827L125.5 55.2827L146.17 93.2827L119 93.2827L103 63.2827Z" fill="white"/>
<path d="M0 15H22.5335C31.9458 15 40.1793 21.3354 42.5908 30.4336C43.5143 33.9177 43.5143 37.5823 42.5908 41.0664C40.1793 50.1646 31.9458 56.5 22.5335 56.5H0M84 15H106.533C115.946 15 124.179 21.3354 126.591 30.4336C127.514 33.9177 127.514 37.5823 126.591 41.0664C124.179 50.1646 115.946 56.5 106.533 56.5H84M271.189 79.2722H283.919C299.989 79.2722 313.735 67.704 316.505 51.8481C317.165 48.0688 317.165 44.2034 316.505 40.4241C313.735 24.5682 299.989 13 283.919 13H242.361C231.921 13 223.457 21.4774 223.457 31.9349V79.7609C223.457 80.6692 222.304 81.0563 221.758 80.3314L172.699 15.2544C172.153 14.5295 171 14.9166 171 15.8249V93" stroke="white" stroke-width="25"/>
</svg>
