<svg width="610" height="96" viewBox="0 0 610 96" fill="none" xmlns="http://www.w3.org/2000/svg">
<path d="M81.4546 0.909088V94H56.5455V20.9091H25.0909V94H0.181816V0.909088H81.4546Z" fill="#949494"/>
<path d="M131.625 95.2727C124.049 95.2727 117.564 93.7727 112.17 90.7727C106.777 87.7424 102.64 83.5303 99.7614 78.1364C96.8826 72.7121 95.4432 66.4242 95.4432 59.2727C95.4432 52.1212 96.8826 45.8485 99.7614 40.4545C102.64 35.0303 106.777 30.8182 112.17 27.8182C117.564 24.7879 124.049 23.2727 131.625 23.2727C139.201 23.2727 145.686 24.7879 151.08 27.8182C156.473 30.8182 160.61 35.0303 163.489 40.4545C166.367 45.8485 167.807 52.1212 167.807 59.2727C167.807 66.4242 166.367 72.7121 163.489 78.1364C160.61 83.5303 156.473 87.7424 151.08 90.7727C145.686 93.7727 139.201 95.2727 131.625 95.2727ZM131.807 76.7273C133.928 76.7273 135.761 76.0152 137.307 74.5909C138.852 73.1667 140.049 71.1364 140.898 68.5C141.746 65.8636 142.17 62.7273 142.17 59.0909C142.17 55.4242 141.746 52.2879 140.898 49.6818C140.049 47.0455 138.852 45.0152 137.307 43.5909C135.761 42.1667 133.928 41.4545 131.807 41.4545C129.564 41.4545 127.64 42.1667 126.034 43.5909C124.428 45.0152 123.201 47.0455 122.352 49.6818C121.504 52.2879 121.08 55.4242 121.08 59.0909C121.08 62.7273 121.504 65.8636 122.352 68.5C123.201 71.1364 124.428 73.1667 126.034 74.5909C127.64 76.0152 129.564 76.7273 131.807 76.7273Z" fill="#949494"/>
<path d="M228.898 24.1818V42.9091H202.17V94H177.989V24.1818H228.898Z" fill="#949494"/>
<path d="M357.455 49.4545V68.1818H265.443V49.4545H357.455Z" fill="#FF0000"/>
<path d="M408.352 95.0909C403.898 95.0909 399.958 94.3636 396.534 92.9091C393.14 91.4242 390.473 89.1818 388.534 86.1818C386.595 83.1818 385.625 79.3636 385.625 74.7273C385.625 70.9091 386.276 67.6515 387.58 64.9545C388.883 62.2273 390.701 60 393.034 58.2727C395.367 56.5455 398.08 55.2273 401.17 54.3182C404.292 53.4091 407.655 52.8182 411.261 52.5455C415.17 52.2424 418.307 51.8788 420.67 51.4545C423.064 51 424.792 50.3788 425.852 49.5909C426.913 48.7727 427.443 47.697 427.443 46.3636V46.1818C427.443 44.3636 426.746 42.9697 425.352 42C423.958 41.0303 422.17 40.5455 419.989 40.5455C417.595 40.5455 415.64 41.0758 414.125 42.1364C412.64 43.1667 411.746 44.7576 411.443 46.9091H388.352C388.655 42.6667 390.004 38.7576 392.398 35.1818C394.822 31.5758 398.352 28.697 402.989 26.5455C407.625 24.3636 413.413 23.2727 420.352 23.2727C425.352 23.2727 429.837 23.8636 433.807 25.0455C437.776 26.197 441.155 27.8182 443.943 29.9091C446.731 31.9697 448.852 34.3939 450.307 37.1818C451.792 39.9394 452.534 42.9394 452.534 46.1818V94H429.08V84.1818H428.534C427.14 86.7879 425.443 88.8939 423.443 90.5C421.473 92.1061 419.216 93.2727 416.67 94C414.155 94.7273 411.383 95.0909 408.352 95.0909ZM416.534 79.2727C418.443 79.2727 420.231 78.8788 421.898 78.0909C423.595 77.303 424.973 76.1667 426.034 74.6818C427.095 73.197 427.625 71.3939 427.625 69.2727V63.4545C426.958 63.7273 426.246 63.9848 425.489 64.2273C424.761 64.4697 423.973 64.697 423.125 64.9091C422.307 65.1212 421.428 65.3182 420.489 65.5C419.58 65.6818 418.625 65.8485 417.625 66C415.686 66.303 414.095 66.803 412.852 67.5C411.64 68.1667 410.731 69 410.125 70C409.549 70.9697 409.261 72.0606 409.261 73.2727C409.261 75.2121 409.943 76.697 411.307 77.7273C412.67 78.7576 414.413 79.2727 416.534 79.2727Z" fill="#949494"/>
<path d="M461.795 94L461.614 75.0909H463.795C465.159 75.0909 466.356 74.697 467.386 73.9091C468.447 73.1212 469.341 71.9091 470.068 70.2727C470.826 68.6364 471.417 66.5606 471.841 64.0455C472.295 61.5303 472.583 58.5455 472.705 55.0909L473.795 24.1818H531.25V94H507.614V42.9091H495.977L494.886 61.8182C494.583 67.7576 493.735 72.7879 492.341 76.9091C490.977 81.0303 489.159 84.3485 486.886 86.8636C484.614 89.3485 481.977 91.1667 478.977 92.3182C475.977 93.4394 472.674 94 469.068 94H461.795Z" fill="#949494"/>
<path d="M566.909 62L586.364 24.1818H610V94H586.364V56L566.909 94H543.273V24.1818H566.909V62Z" fill="#949494"/>
<path d="M260.455 24.1818L282.443 59.0909L260.455 94H237L258.989 59.0909L237 24.1818H260.455Z" fill="#FF0000"/>
<path d="M357.455 24.1818L379.443 59.0909L357.455 94H334L355.989 59.0909L334 24.1818H357.455Z" fill="#FF0000"/>
</svg>
