<svg width="600" height="228" viewBox="0 0 600 228" fill="none" xmlns="http://www.w3.org/2000/svg">
<path d="M16 50L75.007 23.5198C128.51 -0.490365 188.43 -6.21801 245.512 7.22137L363.5 35L280 228H37L16 50Z" fill="#4D4D4D"/>
<path d="M0 23V23C96.3262 49.2112 197.83 49.7975 294.452 24.7007L301 23L307.542 21.2896C403.492 -3.79517 504.351 -3.20533 600 23V23V228H0V23Z" fill="#5E5E5E"/>
<path d="M584.457 213.315C554.901 170.099 501.067 150.56 450.673 164.757L396.453 180.032C358.008 190.863 317.576 192.639 278.329 185.219L267.353 183.144C183.48 167.287 96.7078 183.282 24 228V228H535H594.5L584.457 213.315Z" fill="#6C6C6C"/>
<path d="M16 50L75.007 23.5198C128.51 -0.490365 188.43 -6.21801 245.512 7.22137L363.5 35L280 228H37L16 50Z" fill="#4D4D4D"/>
<path d="M0 23V23C96.3262 49.2112 197.83 49.7975 294.452 24.7007L301 23L307.542 21.2896C403.492 -3.79517 504.351 -3.20533 600 23V23V228H0V23Z" fill="#5E5E5E"/>
<path d="M584.457 213.315C554.901 170.099 501.067 150.56 450.673 164.757L396.453 180.032C358.008 190.863 317.576 192.639 278.329 185.219L267.353 183.144C183.48 167.287 96.7078 183.282 24 228V228H535H594.5L584.457 213.315Z" fill="#6C6C6C"/>
</svg>
